<svg viewBox="0 0 1257 155" xmlns="http://www.w3.org/2000/svg" fill-rule="evenodd" clip-rule="evenodd" stroke-linejoin="round" stroke-miterlimit="1.414">
  <g id="clouds" fill="#fff">
    <path id="cloud4" d="M1109.01 155c-.007-.332-.01-.666-.01-1 0-25.287 18.813-46.216 43.194-49.54C1153.958 88.462 1167.535 76 1184 76c17.661 0 32 14.339 32 32 0 1.167-.063 2.319-.185 3.454a35.632 35.632 0 0 1 5.685-.454c19.593 0 35.5 15.907 35.5 35.5a35.55 35.55 0 0 1-1.026 8.5H1109.01z" fill-opacity=".901"/>
    <path id="cloud3" d="M795 76c3.366-21.517 22.002-38 44.458-38 2.758 0 5.459.249 8.081.725C852.266 16.607 871.938 0 895.458 0c23.271 0 42.775 16.258 47.763 38.025.411-.017.823-.025 1.237-.025 16.557 0 30 13.443 30 30 0 2.77-.377 5.453-1.081 8H795z" fill-opacity=".702"/>
    <path id="cloud2" d="M296.012 155a61.09 61.09 0 0 1-.012-1.213c0-30.662 22.812-56.038 52.375-60.069 2.138-19.398 18.602-34.51 38.566-34.51 21.416 0 38.802 17.387 38.802 38.802 0 1.415-.076 2.812-.224 4.188a43.265 43.265 0 0 1 6.893-.55c23.757 0 43.046 19.288 43.046 43.045 0 3.552-.432 7.004-1.245 10.307H296.012z" fill-opacity=".947"/>
    <path id="cloud1" d="M0 129.805c4.675-13.625 17.086-23.669 31.979-24.877a62.53 62.53 0 0 1-1.972-15.623c0-34.495 28.005-62.5 62.5-62.5 31.289 0 57.239 23.042 61.791 53.068 19.908 1.187 35.709 17.729 35.709 37.932a37.92 37.92 0 0 1-1.937 12H0z" fill-opacity=".75"/>
  </g>
</svg>
