<svg viewBox="300 0 816 188" fill-rule="evenodd" clip-rule="evenodd" stroke-linejoin="round" stroke-miterlimit="1.414">
  <g id="clouds" fill="#fff">
    <path class="cloud" d="M.006 50.573a34.059 34.059 0 0 1-.006-.64c0-16.188 12.043-29.586 27.651-31.714C28.781 7.978 37.472 0 48.012 0c11.306 0 20.486 9.179 20.486 20.485 0 .747-.041 1.485-.119 2.211a22.762 22.762 0 0 1 3.64-.29c12.542 0 22.725 10.183 22.725 22.726a22.78 22.78 0 0 1-.656 5.441H.006z"
      fill-opacity=".898" />
    <path class="cloud" d="M203.006 160.291a34.245 34.245 0 0 1-.006-.641c0-16.188 12.044-29.585 27.651-31.713 1.129-10.241 9.821-18.22 20.361-18.22 11.307 0 20.485 9.18 20.485 20.486 0 .747-.04 1.484-.118 2.211a22.76 22.76 0 0 1 3.639-.29c12.543 0 22.726 10.183 22.726 22.725a22.76 22.76 0 0 1-.657 5.442h-94.081z"
      fill-opacity=".945" />
    <path class="cloud" d="M326.328 66.89c1.08-6.905 7.061-12.195 14.268-12.195.885 0 1.752.08 2.593.233 1.517-7.098 7.831-12.428 15.379-12.428 7.468 0 13.727 5.218 15.328 12.203.132-.005.264-.008.397-.008 5.314 0 9.628 4.314 9.628 9.628 0 .889-.121 1.75-.347 2.567h-57.246z"
      fill-opacity=".702" />
    <path class="cloud" d="M682.856 160.29a27.193 27.193 0 0 1-.007-.64c0-16.188 12.044-29.586 27.651-31.713 1.13-10.242 9.821-18.22 20.361-18.22 11.306 0 20.486 9.18 20.486 20.486 0 .747-.041 1.484-.119 2.211a22.88 22.88 0 0 1 3.64-.291c12.542 0 22.726 10.183 22.726 22.726a22.77 22.77 0 0 1-.657 5.441h-94.081z"
      fill-opacity=".898" />
    <path class="cloud" d="M937.407 66.89c1.081-6.905 7.061-12.195 14.268-12.195.885 0 1.752.08 2.593.233 1.517-7.098 7.831-12.428 15.379-12.428 7.468 0 13.727 5.218 15.328 12.203.132-.005.264-.008.397-.008 5.314 0 9.628 4.314 9.628 9.628 0 .889-.121 1.75-.347 2.567h-57.246z"
      fill-opacity=".702" />
    <path class="cloud" d="M777.6 93.073a34.139 34.139 0 0 1-.006-.64c0-16.188 12.043-29.585 27.651-31.714 1.129-10.241 9.821-18.219 20.361-18.219 11.306 0 20.485 9.179 20.485 20.485 0 .747-.04 1.485-.118 2.211 1.203-.193 2.42-.29 3.639-.29 12.542 0 22.726 10.183 22.726 22.726 0 1.875-.228 3.697-.657 5.441H777.6z"
      fill-opacity=".945" />
    <path class="cloud" d="M417 128.213c2.783-8.112 10.172-14.092 19.039-14.811a37.226 37.226 0 0 1-1.174-9.301c0-20.537 16.673-37.211 37.21-37.211 18.629 0 34.079 13.719 36.789 31.595 11.852.707 21.26 10.555 21.26 22.584a22.585 22.585 0 0 1-1.154 7.144H417z"
      fill-opacity=".749" />
  </g>
</svg>