<svg viewBox="0 0 142 426" xmlns="http://www.w3.org/2000/svg" xmlns:serif="http://www.serif.com/" fill-rule="evenodd" clip-rule="evenodd" stroke-linecap="round" stroke-linejoin="round" stroke-miterlimit="1.5">
  <g id="enter_here">
    <g id="post">
      <path id="post1" serif:id="post" fill="#3a3a3a" d="M59.5 134.5h24v291h-24z"/>
      <path fill="#474747" d="M71.5 134.5h12v291h-12z"/>
    </g>
    <g id="sign_head">
      <g id="enter_here_panel" fill="#feb926" stroke="#3a3a3a">
        <path d="M141.5 7.501A7.004 7.004 0 0 0 134.499.5H7.501A7.004 7.004 0 0 0 .5 7.501v139.813a7.004 7.004 0 0 0 7.001 7.001h126.998a7.004 7.004 0 0 0 7.001-7.001V7.501z"/>
        <path d="M135.5 11.921a6.408 6.408 0 0 0-6.405-6.405H12.905A6.408 6.408 0 0 0 6.5 11.921v129.973a6.408 6.408 0 0 0 6.405 6.405h116.19a6.408 6.408 0 0 0 6.405-6.405V11.921z" stroke-width="3"/>
      </g>
      <g id="enter_here_text" fill="#1c1c1c" fill-rule="nonzero">
        <path d="M18.068 122.903h-1.896l7.344-16.992h1.68l7.296 16.992h-1.92l-1.872-4.464h-8.784l-1.848 4.464zm2.496-6.048h7.488l-3.744-9.024-3.744 9.024zM47.036 120.383h.048v-14.472h1.728v16.992h-2.16l-9.888-14.616h-.048v14.616h-1.728v-16.992h2.16l9.888 14.472zM59.156 122.903h-1.728v-7.32l-6.36-9.672h2.16l5.112 8.232 5.16-8.232h2.016l-6.36 9.672v7.32zM79.22 122.903h-1.728v-15.456h-5.688v-1.536h13.104v1.536H79.22v15.456zM87.452 105.911h1.728v16.992h-1.728zM102.092 119.975h.024l5.688-14.064h2.64v16.992h-1.728v-14.76h-.048l-6.144 14.76h-.912l-6.144-14.76h-.048v14.76h-1.728v-16.992h2.64l5.76 14.064zM116.684 121.367h9.096v1.536h-10.824v-16.992h10.536v1.536h-8.808v5.856h8.232v1.512h-8.232v6.552zM15.669 62.415h5.733v13.013h15.061V62.415h5.733v32.214h-5.733V80.342H21.402v14.287h-5.733V62.415zM49.294 62.415h21.339v5.005H55.027v8.19h14.787v4.823H55.027v9.1h16.425v5.096H49.294V62.415zM77.049 62.415h11.193c1.516 0 2.988.16 4.413.478 1.426.319 2.692.842 3.8 1.57a8.185 8.185 0 0 1 2.661 2.866c.668 1.183 1.001 2.624 1.001 4.323 0 2.335-.659 4.239-1.979 5.71-1.319 1.471-3.117 2.465-5.392 2.98l8.6 14.287H94.43l-7.462-13.65h-4.186v13.65h-5.733V62.415zm10.419 13.878c.819 0 1.638-.061 2.457-.182a7.103 7.103 0 0 0 2.207-.683 4.297 4.297 0 0 0 1.615-1.433c.425-.622.637-1.418.637-2.389 0-.879-.197-1.6-.591-2.161a4.403 4.403 0 0 0-1.502-1.342c-.606-.334-1.296-.561-2.07-.683a14.563 14.563 0 0 0-2.252-.182h-5.187v9.055h4.686zM105.668 62.415h21.34v5.005h-15.607v8.19h14.788v4.823h-14.788v9.1h16.426v5.096h-22.159V62.415zM15.669 30.911h16.884v3.96H20.205v6.48h11.7v3.816h-11.7v7.2h12.996v4.032H15.669V30.911zM37.629 30.911h6.012l11.844 19.08h.072v-19.08h4.536v25.488h-5.76L42.237 36.707h-.072v19.692h-4.536V30.911zM70.857 34.871h-7.812v-3.96h20.16v3.96h-7.812v21.528h-4.536V34.871zM86.157 30.911h16.884v3.96H90.693v6.48h11.7v3.816h-11.7v7.2h12.996v4.032H86.157V30.911zM108.117 30.911h8.856c1.2 0 2.364.126 3.492.378 1.128.252 2.13.666 3.006 1.242a6.48 6.48 0 0 1 2.106 2.268c.528.936.792 2.076.792 3.42 0 1.848-.522 3.354-1.566 4.518-1.044 1.164-2.466 1.95-4.266 2.358l6.804 11.304h-5.472l-5.904-10.8h-3.312v10.8h-4.536V30.911zm8.244 10.98c.648 0 1.296-.048 1.944-.144a5.613 5.613 0 0 0 1.746-.54 3.41 3.41 0 0 0 1.278-1.134c.336-.492.504-1.122.504-1.89 0-.696-.156-1.266-.468-1.71a3.484 3.484 0 0 0-1.188-1.062 4.969 4.969 0 0 0-1.638-.54 11.496 11.496 0 0 0-1.782-.144h-4.104v7.164h3.708z"/>
      </g>
    </g>
  </g>
</svg>
