<svg viewBox="0 0 434 329" xmlns="http://www.w3.org/2000/svg" xmlns:serif="http://www.serif.com/" fill-rule="evenodd" clip-rule="evenodd" stroke-linecap="round" stroke-linejoin="round" stroke-miterlimit="1.5">
  <g id="center-piece" serif:id="center piece">
    <g id="enter_here">
      <g id="post">
        <path id="post1" serif:id="post" fill="#3a3a3a" d="M45.242 102.27h18.249v221.267H45.242z"/>
        <path fill="#474747" d="M54.366 102.27h9.124v221.267h-9.124z"/>
      </g>
      <g id="sign_head">
        <g id="enter_here_panel" fill="#feb926" stroke="#3a3a3a">
          <path d="M107.592 5.704c-.001-2.92-2.403-5.323-5.323-5.324H5.704C2.784.381.381 2.784.38 5.704v106.309c.001 2.92 2.404 5.322 5.324 5.323h96.565c2.92-.001 5.322-2.403 5.323-5.323V5.704z" stroke-width=".76"/>
          <path d="M103.03 9.064c-.001-2.671-2.199-4.869-4.87-4.87H9.813c-2.672.001-4.869 2.199-4.871 4.87v98.828c.002 2.671 2.199 4.869 4.871 4.87H98.16c2.671-.001 4.869-2.199 4.87-4.87V9.064z" stroke-width="2.28"/>
        </g>
        <path id="enter_here_text" d="M13.738 93.452h-1.441l5.584-12.921h1.277l5.548 12.921h-1.46l-1.423-3.395h-6.679l-1.406 3.395zm1.898-4.599h5.694l-2.847-6.862-2.847 6.862zm20.129 2.682h.036V80.531h1.314v12.921h-1.642l-7.519-11.114h-.036v11.114h-1.314V80.531h1.642l7.519 11.004zm9.215 1.917h-1.314v-5.566l-4.835-7.355h1.642l3.887 6.26 3.923-6.26h1.533l-4.836 7.355v5.566zm15.256 0h-1.314V81.699h-4.324v-1.168h9.963v1.168h-4.325v11.753zm6.26-12.921h1.314v12.921h-1.314V80.531zm11.132 10.694h.018l4.325-10.694h2.007v12.921h-1.314V82.229h-.036l-4.672 11.223h-.693l-4.672-11.223h-.037v11.223H71.24V80.531h2.008l4.38 10.694zm11.095 1.059h6.916v1.168h-8.23V80.531h8.011v1.168h-6.697v4.453h6.259v1.15h-6.259v4.982zM11.914 47.458h4.359v9.895h11.452v-9.895h4.36v24.495h-4.36V61.09H16.273v10.863h-4.359V47.458zm25.568 0h16.225v3.806H41.841v6.227h11.243v3.668H41.841v6.919H54.33v3.875H37.482V47.458zm21.104 0h8.51c1.153 0 2.272.122 3.356.364s2.047.64 2.889 1.194a6.226 6.226 0 0 1 2.024 2.179c.508.899.761 1.995.761 3.287 0 1.775-.501 3.223-1.505 4.342-1.003 1.118-2.37 1.874-4.1 2.266l6.539 10.863h-5.258l-5.674-10.379h-3.183v10.379h-4.359V47.458zm7.922 10.553c.623 0 1.245-.047 1.868-.139a5.375 5.375 0 0 0 1.678-.519 3.265 3.265 0 0 0 1.228-1.09c.323-.472.485-1.078.485-1.816 0-.668-.15-1.217-.45-1.643a3.342 3.342 0 0 0-1.142-1.021 4.776 4.776 0 0 0-1.574-.519 11.031 11.031 0 0 0-1.712-.138h-3.944v6.885h3.563zm13.839-10.553h16.226v3.806H84.706v6.227H95.95v3.668H84.706v6.919h12.49v3.875H80.347V47.458zM11.914 23.504h12.838v3.011h-9.389v4.927h8.897v2.902h-8.897v5.474h9.882v3.066H11.914v-19.38zm16.698 0h4.571l9.006 14.508h.055V23.504h3.449v19.38h-4.38l-9.197-14.973h-.055v14.973h-3.449v-19.38zm25.265 3.011h-5.94v-3.011h15.329v3.011h-5.94v16.369h-3.449V26.515zm11.634-3.011h12.838v3.011H68.96v4.927h8.896v2.902H68.96v5.474h9.882v3.066H65.511v-19.38zm16.698 0h6.734c.912 0 1.797.096 2.655.287a6.83 6.83 0 0 1 2.285.945 4.921 4.921 0 0 1 1.602 1.724c.401.712.602 1.579.602 2.601 0 1.405-.397 2.55-1.191 3.435-.794.885-1.875 1.483-3.243 1.793l5.173 8.595h-4.161l-4.489-8.212h-2.518v8.212h-3.449v-19.38zm6.268 8.349c.493 0 .986-.037 1.478-.11a4.27 4.27 0 0 0 1.328-.41c.392-.201.726-.498.972-.863.255-.374.383-.853.383-1.437 0-.529-.119-.962-.356-1.3a2.662 2.662 0 0 0-.903-.808 3.784 3.784 0 0 0-1.246-.41 8.782 8.782 0 0 0-1.355-.11h-3.12v5.448h2.819z" fill="#1c1c1c" fill-rule="nonzero"/>
      </g>
    </g>
    <g id="jeepney">
      <path id="Spare-tire" serif:id="Spare tire" d="M429.336 152.719c0-4.693-3.811-8.503-8.504-8.503h-17.006c-4.693 0-8.503 3.81-8.503 8.503v53.278c0 4.693 3.81 8.503 8.503 8.503h17.006c4.693 0 8.504-3.81 8.504-8.503v-53.278z" fill="#181818"/>
      <clipPath id="_clip1">
        <path d="M429.336 152.719c0-4.693-3.811-8.503-8.504-8.503h-17.006c-4.693 0-8.503 3.81-8.503 8.503v53.278c0 4.693 3.81 8.503 8.503 8.503h17.006c4.693 0 8.504-3.81 8.504-8.503v-53.278z"/>
      </clipPath>
      <g clip-path="url(#_clip1)">
        <path d="M403.656 140.534h3.075v77.648h-3.075v-77.648zm15.3 0h3.074v77.648h-3.074v-77.648zm-9.087 0h5.895v77.648h-5.895v-77.648z" fill="#212121"/>
      </g>
      <g id="Main">
        <g id="Upper">
          <g id="Right-Lights" serif:id="Right Lights">
            <path fill="#001206" d="M366.635 48.114h8.508v1.174h-8.508z"/>
            <path d="M381.511 41.1l.043.003.042.006.04.007.041.01.04.011.039.013.039.015.036.017.036.019.036.019.034.023.032.023.031.024.031.027.029.028.028.029.026.03.024.031.024.033.021.033.021.036.018.036.017.037.015.038.013.039.011.039.01.041.007.042.006.042.003.042.001.037v5.473l-.001.038-.003.042-.006.042-.007.041-.01.041-.011.04-.013.039-.015.037-.017.037-.018.037-.021.035-.021.034-.024.032-.025.032-.025.03-.028.029-.029.028-.031.026-.031.024-.032.024-.034.022-.036.02-.036.019-.036.016-.039.016-.039.012-.04.012-.041.009-.04.007-.042.006-.043.003-.037.001h-21.169l-.037-.001-.042-.003-.042-.006-.041-.007-.041-.009-.04-.012-.039-.012-.038-.016-.037-.016-.036-.019-.035-.02-.034-.022-.033-.024-.031-.024-.031-.026-.029-.028-.027-.029-.026-.03-.025-.032-.024-.032-.021-.034-.02-.035-.019-.037-.017-.037-.015-.037-.013-.039-.011-.04-.009-.041-.008-.041-.005-.043-.004-.042v-5.547l.004-.042.005-.042.008-.042.009-.041.011-.039.013-.039.015-.038.017-.037.019-.036.02-.036.021-.033.024-.033.025-.031.026-.03.028-.029.028-.028.031-.027.031-.024.033-.024.034-.022.035-.019.036-.019.037-.017.038-.015.039-.013.04-.011.041-.01.041-.007.042-.006.042-.003.037-.001h21.169l.037.001zm-21.2.413l-.022.001-.021.001-.022.003-.02.004-.021.004-.02.006-.02.007-.019.007-.019.008-.017.01-.018.01-.018.011-.016.012-.016.012-.015.014-.015.014-.014.015-.013.014-.013.017-.012.016-.011.018-.01.017-.009.018-.009.019-.007.019-.007.02-.006.02-.004.021-.004.02-.003.021-.001.022-.001.021v5.463l.001.022.001.021.003.021.004.021.004.021.006.019.007.02.007.019.009.019.009.019.01.017.011.017.025.033.027.03.015.014.015.013.016.013.016.011.018.011.018.01.017.01.038.016.02.006.02.006.021.005.02.003.022.003.021.002h21.201l.022-.002.021-.003.021-.003.02-.005.02-.006.02-.006.019-.008.019-.008.018-.01.018-.01.017-.011.016-.011.017-.013.015-.013.015-.014.013-.015.014-.015.013-.017.011-.016.011-.017.01-.017.01-.019.008-.019.007-.019.007-.02.006-.019.005-.021.003-.021.003-.021.001-.021.001-.022v-5.463l-.001-.021-.001-.022-.003-.021-.003-.02-.005-.021-.006-.02-.007-.02-.007-.019-.008-.019-.01-.018-.01-.017-.011-.018-.011-.016-.013-.017-.014-.014-.013-.015-.015-.014-.015-.014-.017-.012-.016-.012-.017-.011-.018-.01-.018-.01-.019-.008-.019-.007-.02-.007-.02-.006-.02-.004-.021-.004-.021-.003-.022-.001-.021-.001h-21.158z" fill="#002486"/>
            <path d="M381.891 41.935a.425.425 0 0 0-.422-.422h-21.158a.425.425 0 0 0-.423.422v5.463c0 .233.19.422.423.422h21.158c.231 0 .422-.19.422-.422v-5.463z" fill="#0033ba"/>
            <g fill="#0062ce">
              <circle cx="361.355" cy="42.907" r=".66"/>
              <circle cx="363.739" cy="42.907" r=".66"/>
              <circle cx="366.122" cy="42.907" r=".66"/>
              <circle cx="368.506" cy="42.907" r=".66"/>
              <circle cx="370.89" cy="42.907" r=".66"/>
              <circle cx="373.273" cy="42.907" r=".66"/>
              <circle cx="375.657" cy="42.907" r=".66"/>
              <circle cx="378.04" cy="42.907" r=".66"/>
              <circle cx="380.424" cy="42.907" r=".66"/>
              <circle cx="361.355" cy="44.667" r=".66"/>
              <circle cx="363.739" cy="44.667" r=".66"/>
              <circle cx="366.122" cy="44.667" r=".66"/>
              <circle cx="368.506" cy="44.667" r=".66"/>
              <circle cx="370.89" cy="44.667" r=".66"/>
              <circle cx="373.273" cy="44.667" r=".66"/>
              <circle cx="375.657" cy="44.667" r=".66"/>
              <circle cx="378.04" cy="44.667" r=".66"/>
              <circle cx="380.424" cy="44.667" r=".66"/>
              <g>
                <circle cx="361.355" cy="46.427" r=".66"/>
                <circle cx="363.739" cy="46.427" r=".66"/>
                <circle cx="366.122" cy="46.427" r=".66"/>
                <circle cx="368.506" cy="46.427" r=".66"/>
                <circle cx="370.89" cy="46.427" r=".66"/>
                <circle cx="373.273" cy="46.427" r=".66"/>
                <circle cx="375.657" cy="46.427" r=".66"/>
                <circle cx="378.04" cy="46.427" r=".66"/>
                <circle cx="380.424" cy="46.427" r=".66"/>
              </g>
            </g>
          </g>
          <g id="Left-Lights" serif:id="Left Lights">
            <path fill="#001206" d="M193.334 48.114h8.508v1.174h-8.508z"/>
            <path d="M208.21 41.1l.042.003.042.006.041.007.041.01.04.011.039.013.038.015.037.017.036.019.035.02.034.021.033.024.031.024.031.027.028.028.028.028.026.031.025.031.023.032.022.034.02.036.018.036.017.036.015.039.013.039.012.04.009.041.008.04.005.043.003.042.001.037v5.473l-.001.038-.003.042-.005.042-.008.041-.009.04-.012.04-.013.039-.015.039-.017.036-.018.036-.02.036-.022.034-.023.032-.025.032-.026.03-.028.029-.028.028-.031.026-.031.024-.033.024-.034.022-.035.02-.036.019-.037.016-.038.015-.039.013-.04.012-.041.009-.041.007-.042.006-.042.003-.038.001h-21.168l-.038-.001-.042-.003-.042-.006-.041-.007-.04-.009-.04-.012-.04-.013-.038-.015-.037-.016-.036-.019-.035-.02-.034-.022-.032-.024-.032-.024-.03-.026-.029-.028-.028-.029-.026-.03-.025-.032-.023-.032-.022-.034-.02-.035-.019-.037-.016-.037-.015-.037-.014-.039-.011-.041-.009-.04-.007-.041-.006-.042-.003-.042-.001-.038V41.93l.001-.037.003-.042.006-.042.007-.041.009-.041.011-.04.014-.039.015-.038.016-.037.019-.036.02-.036.022-.033.023-.033.025-.031.026-.031.028-.028.029-.028.03-.027.032-.024.032-.024.034-.022.035-.019.036-.019.037-.017.038-.015.04-.013.04-.011.04-.01.041-.007.042-.006.042-.003.038-.001h21.168l.038.001zm-21.201.413l-.022.001-.021.001-.021.003-.021.004-.021.004-.02.006-.019.007-.019.007-.019.008-.019.01-.017.01-.017.011-.017.012-.016.012-.015.014-.015.014-.014.015-.013.014-.013.017-.011.016-.011.018-.01.017-.01.018-.008.019-.008.019-.006.02-.006.02-.005.021-.004.02-.002.021-.002.022v5.506l.002.021.002.021.004.021.005.021.012.039.016.038.01.019.01.017.011.017.011.016.013.017.013.015.014.015.015.014.015.013.016.013.017.011.017.011.017.01.019.01.038.016.039.012.021.005.021.003.021.003.021.002h21.202l.021-.002.021-.003.021-.003.021-.005.02-.006.02-.006.019-.008.018-.008.018-.01.018-.01.017-.011.017-.011.016-.013.015-.013.015-.014.014-.015.013-.015.012-.017.013-.016.011-.017.01-.017.009-.019.008-.019.008-.019.007-.02.005-.019.005-.021.004-.021.003-.021.001-.021.001-.022v-5.463l-.001-.021-.001-.022-.003-.021-.004-.02-.005-.021-.005-.02-.007-.02-.008-.019-.008-.019-.009-.018-.01-.017-.011-.018-.013-.016-.012-.017-.013-.014-.014-.015-.015-.014-.015-.014-.016-.012-.017-.012-.017-.011-.018-.01-.018-.01-.018-.008-.019-.007-.02-.007-.02-.006-.021-.004-.021-.004-.021-.003-.021-.001-.022-.001h-21.158z" fill="#002486"/>
            <path d="M208.59 41.935a.426.426 0 0 0-.423-.422h-21.158a.424.424 0 0 0-.422.422v5.463c0 .233.188.422.422.422h21.158c.232 0 .423-.19.423-.422v-5.463z" fill="#0033ba"/>
            <g fill="#0062ce">
              <circle cx="188.053" cy="42.907" r=".66"/>
              <circle cx="190.437" cy="42.907" r=".66"/>
              <circle cx="192.821" cy="42.907" r=".66"/>
              <circle cx="195.204" cy="42.907" r=".66"/>
              <circle cx="197.588" cy="42.907" r=".66"/>
              <circle cx="199.972" cy="42.907" r=".66"/>
              <circle cx="202.355" cy="42.907" r=".66"/>
              <circle cx="204.739" cy="42.907" r=".66"/>
              <circle cx="207.123" cy="42.907" r=".66"/>
              <circle cx="188.053" cy="44.667" r=".66"/>
              <circle cx="190.437" cy="44.667" r=".66"/>
              <circle cx="192.821" cy="44.667" r=".66"/>
              <circle cx="195.204" cy="44.667" r=".66"/>
              <circle cx="197.588" cy="44.667" r=".66"/>
              <circle cx="199.972" cy="44.667" r=".66"/>
              <circle cx="202.355" cy="44.667" r=".66"/>
              <circle cx="204.739" cy="44.667" r=".66"/>
              <circle cx="207.123" cy="44.667" r=".66"/>
              <g>
                <circle cx="188.053" cy="46.427" r=".66"/>
                <circle cx="190.437" cy="46.427" r=".66"/>
                <circle cx="192.821" cy="46.427" r=".66"/>
                <circle cx="195.204" cy="46.427" r=".66"/>
                <circle cx="197.588" cy="46.427" r=".66"/>
                <circle cx="199.972" cy="46.427" r=".66"/>
                <circle cx="202.355" cy="46.427" r=".66"/>
                <circle cx="204.739" cy="46.427" r=".66"/>
                <circle cx="207.123" cy="46.427" r=".66"/>
              </g>
            </g>
          </g>
          <g id="Left-Lights1" serif:id="Left Lights">
            <path fill="#001206" d="M225.815 48.114h8.508v1.174h-8.508z"/>
            <path d="M240.691 41.1l.042.003.042.006.041.007.041.01.04.011.038.013.038.015.038.017.036.019.035.019.033.022.034.024.031.024.03.027.029.028.028.028.026.031.025.031.023.032.022.034.02.036.018.036.017.036.015.039.014.039.011.04.009.041.008.04.005.043.003.042.001.037v5.473l-.001.038-.003.042-.005.042-.008.041-.009.04-.011.04-.014.039-.015.039-.017.036-.018.036-.02.036-.022.034-.023.032-.025.032-.026.03-.028.029-.029.028-.03.026-.031.024-.034.024-.033.022-.035.02-.036.019-.038.016-.038.015-.038.013-.04.012-.041.009-.041.007-.042.006-.042.003-.038.001h-21.168l-.038-.001-.042-.003-.042-.006-.041-.007-.04-.009-.041-.012-.038-.013-.039-.015-.037-.016-.036-.019-.035-.02-.034-.022-.033-.024-.031-.024-.03-.026-.03-.028-.027-.029-.026-.03-.025-.032-.023-.032-.022-.034-.02-.035-.019-.037-.016-.036-.015-.038-.014-.04-.011-.04-.009-.04-.008-.041-.005-.042-.003-.042-.001-.038V41.93l.001-.037.003-.042.005-.042.008-.041.009-.041.011-.04.014-.039.015-.039.016-.036.019-.036.02-.035.022-.034.023-.033.025-.031.026-.031.027-.028.03-.028.03-.027.031-.024.033-.024.034-.022.035-.019.036-.019.037-.017.039-.015.038-.013.041-.011.04-.01.041-.007.042-.006.042-.003.038-.001h21.168l.038.001zm-21.201.413l-.022.001-.021.001-.022.003-.02.004-.021.004-.02.006-.019.007-.019.007-.019.008-.019.01-.017.01-.017.011-.017.012-.016.012-.015.014-.015.014-.014.015-.013.014-.013.017-.011.016-.011.018-.01.017-.01.018-.008.019-.008.019-.006.02-.007.02-.004.021-.004.02-.002.021-.002.022v5.506l.002.021.002.021.004.021.004.021.013.039.016.038.01.019.01.017.011.017.011.016.013.017.013.015.014.015.015.014.015.013.016.013.017.011.017.011.017.01.019.01.038.016.039.012.021.005.02.003.022.003.021.002h21.202l.021-.002.021-.003.021-.003.02-.005.021-.006.02-.006.019-.008.018-.008.018-.01.018-.01.018-.011.016-.011.015-.013.016-.013.015-.014.014-.015.013-.015.012-.017.013-.016.01-.017.011-.017.009-.019.008-.019.008-.019.007-.02.005-.019.005-.021.004-.021.003-.021.001-.021.001-.022v-5.463l-.001-.021-.001-.022-.003-.021-.004-.02-.005-.021-.005-.02-.007-.02-.008-.019-.008-.019-.009-.018-.011-.017-.01-.018-.013-.016-.012-.017-.013-.014-.014-.015-.015-.014-.016-.014-.015-.012-.016-.012-.018-.011-.018-.01-.018-.01-.018-.008-.019-.007-.02-.007-.021-.006-.02-.004-.021-.004-.021-.003-.021-.001-.022-.001H219.49z" fill="#007d28"/>
            <path d="M241.071 41.935a.426.426 0 0 0-.423-.422H219.49a.424.424 0 0 0-.422.422v5.463c0 .233.188.422.422.422h21.158c.232 0 .423-.19.423-.422v-5.463z" fill="#00ba3c"/>
            <g opacity=".5" fill="#00ff5a">
              <circle cx="220.535" cy="42.907" r=".66"/>
              <circle cx="222.918" cy="42.907" r=".66"/>
              <circle cx="225.301" cy="42.907" r=".66"/>
              <circle cx="227.685" cy="42.907" r=".66"/>
              <circle cx="230.069" cy="42.907" r=".66"/>
              <circle cx="232.453" cy="42.907" r=".66"/>
              <circle cx="234.836" cy="42.907" r=".66"/>
              <circle cx="237.22" cy="42.907" r=".66"/>
              <circle cx="239.604" cy="42.907" r=".66"/>
              <circle cx="220.535" cy="44.667" r=".66"/>
              <circle cx="222.918" cy="44.667" r=".66"/>
              <circle cx="225.301" cy="44.667" r=".66"/>
              <circle cx="227.685" cy="44.667" r=".66"/>
              <circle cx="230.069" cy="44.667" r=".66"/>
              <circle cx="232.453" cy="44.667" r=".66"/>
              <circle cx="234.836" cy="44.667" r=".66"/>
              <circle cx="237.22" cy="44.667" r=".66"/>
              <circle cx="239.604" cy="44.667" r=".66"/>
              <g>
                <circle cx="220.535" cy="46.427" r=".66"/>
                <circle cx="222.918" cy="46.427" r=".66"/>
                <circle cx="225.301" cy="46.427" r=".66"/>
                <circle cx="227.685" cy="46.427" r=".66"/>
                <circle cx="230.069" cy="46.427" r=".66"/>
                <circle cx="232.453" cy="46.427" r=".66"/>
                <circle cx="234.836" cy="46.427" r=".66"/>
                <circle cx="237.22" cy="46.427" r=".66"/>
                <circle cx="239.604" cy="46.427" r=".66"/>
              </g>
            </g>
          </g>
          <g id="Left-Lights2" serif:id="Left Lights">
            <path fill="#001206" d="M334.155 48.114h8.508v1.174h-8.508z"/>
            <path d="M349.031 41.1l.042.003.042.006.041.007.04.01.04.011.039.013.038.015.037.017.036.019.036.019.034.023.032.023.032.024.03.027.029.028.028.029.025.03.025.031.024.033.021.033.021.036.018.036.017.037.015.038.013.039.011.039.01.041.007.042.006.042.003.042.001.037v5.473l-.001.038-.003.042-.006.042-.007.041-.01.041-.011.04-.013.039-.015.037-.017.037-.018.037-.021.035-.021.034-.024.032-.025.032-.025.03-.028.029-.029.028-.03.026-.032.024-.032.024-.034.022-.036.02-.036.019-.037.016-.038.015-.039.013-.04.012-.04.009-.041.007-.042.006-.042.003-.038.001h-21.169l-.037-.001-.042-.003-.042-.006-.041-.007-.041-.009-.04-.012-.039-.012-.038-.016-.037-.016-.036-.019-.035-.02-.034-.022-.033-.024-.031-.024-.031-.026-.029-.028-.027-.029-.026-.03-.025-.032-.024-.032-.021-.034-.02-.035-.019-.037-.017-.037-.014-.037-.014-.039-.012-.041-.008-.04-.008-.041-.005-.043-.004-.042v-5.547l.004-.042.005-.043.008-.041.008-.04.012-.04.014-.039.014-.038.017-.037.019-.036.02-.036.021-.033.024-.033.024-.031.027-.031.028-.028.028-.028.031-.027.031-.024.033-.024.034-.022.034-.019.037-.019.037-.017.038-.015.039-.013.04-.011.041-.01.041-.007.042-.006.042-.003.037-.001h21.169l.038.001zm-21.201.413l-.022.001-.022.001-.021.003-.02.004-.021.004-.02.006-.02.007-.019.007-.019.008-.017.01-.019.01-.017.011-.016.012-.016.012-.015.014-.015.014-.014.015-.013.014-.013.017-.012.016-.011.018-.01.017-.009.018-.009.019-.007.019-.007.02-.006.02-.005.021-.003.02-.003.021-.001.022-.001.021v5.463l.001.022.001.021.003.021.003.021.005.021.006.019.007.02.007.019.009.019.009.019.01.017.011.017.012.016.013.017.027.03.015.014.015.013.016.013.016.011.017.011.019.01.017.01.038.016.02.006.02.006.021.005.02.003.021.003.022.002h21.202l.021-.002.021-.003.021-.003.02-.005.02-.006.02-.006.019-.008.019-.008.018-.01.017-.01.018-.011.016-.011.017-.013.015-.013.015-.014.013-.015.014-.015.012-.017.012-.016.011-.017.01-.017.01-.019.008-.019.007-.019.007-.02.006-.019.004-.021.004-.021.003-.021.002-.021v-5.506l-.002-.022-.003-.021-.004-.02-.004-.021-.006-.02-.007-.02-.007-.019-.008-.019-.01-.018-.01-.017-.011-.018-.012-.016-.012-.017-.014-.014-.013-.015-.015-.014-.015-.014-.017-.012-.016-.012-.018-.011-.017-.01-.018-.01-.019-.008-.019-.007-.02-.007-.02-.006-.02-.004-.021-.004-.021-.003-.021-.001-.022-.001H327.83z" fill="#007d28"/>
            <path d="M349.41 41.935a.425.425 0 0 0-.422-.422H327.83a.426.426 0 0 0-.423.422v5.463c0 .233.19.422.423.422h21.158c.232 0 .422-.19.422-.422v-5.463z" fill="#00ba3c"/>
            <g opacity=".5" fill="#00ff5a">
              <circle cx="328.874" cy="42.907" r=".66"/>
              <circle cx="331.258" cy="42.907" r=".66"/>
              <circle cx="333.641" cy="42.907" r=".66"/>
              <circle cx="336.025" cy="42.907" r=".66"/>
              <circle cx="338.409" cy="42.907" r=".66"/>
              <circle cx="340.793" cy="42.907" r=".66"/>
              <circle cx="343.176" cy="42.907" r=".66"/>
              <circle cx="345.559" cy="42.907" r=".66"/>
              <circle cx="347.943" cy="42.907" r=".66"/>
              <circle cx="328.874" cy="44.667" r=".66"/>
              <circle cx="331.258" cy="44.667" r=".66"/>
              <circle cx="333.641" cy="44.667" r=".66"/>
              <circle cx="336.025" cy="44.667" r=".66"/>
              <circle cx="338.409" cy="44.667" r=".66"/>
              <circle cx="340.793" cy="44.667" r=".66"/>
              <circle cx="343.176" cy="44.667" r=".66"/>
              <circle cx="345.559" cy="44.667" r=".66"/>
              <circle cx="347.943" cy="44.667" r=".66"/>
              <g>
                <circle cx="328.874" cy="46.427" r=".66"/>
                <circle cx="331.258" cy="46.427" r=".66"/>
                <circle cx="333.641" cy="46.427" r=".66"/>
                <circle cx="336.025" cy="46.427" r=".66"/>
                <circle cx="338.409" cy="46.427" r=".66"/>
                <circle cx="340.793" cy="46.427" r=".66"/>
                <circle cx="343.176" cy="46.427" r=".66"/>
                <circle cx="345.559" cy="46.427" r=".66"/>
                <circle cx="347.943" cy="46.427" r=".66"/>
              </g>
            </g>
          </g>
        </g>
        <g id="Main1" serif:id="Main">
          <path id="Windsheld-frame" serif:id="Windsheld frame" d="M169.507 88.095v-.878H398.97v.878l5.867 56.54H163.64l5.867-56.54z" fill="#e01e38"/>
          <clipPath id="_clip2">
            <path d="M169.507 88.095v-.878H398.97v.878l5.867 56.54H163.64l5.867-56.54z"/>
          </clipPath>
          <g clip-path="url(#_clip2)">
            <path fill="#7a0010" d="M156.349 81.559h250.686v34.367H156.349z"/>
          </g>
          <g id="MAIN">
            <path id="Board" d="M404.628 89.312H163.43l.167-28.499 14.083-11.735h212.698l14.083 11.735.167 28.499z" fill="#ffffec"/>
            <clipPath id="_clip3">
              <path d="M404.628 89.312H163.43l.167-28.499 14.083-11.735h212.698l14.083 11.735.167 28.499z"/>
            </clipPath>
            <g clip-path="url(#_clip3)">
              <path d="M409.938 70.613l.238.159.159.238.056.281v26.194l-.056.28-.159.239-.238.159-.281.055H159.658l-.28-.055-.238-.159-.159-.239-.056-.28V71.291l.056-.281.159-.238.238-.159.28-.056h249.999l.281.056zm-250.28.678v26.194h249.999V71.291H159.658z"/>
              <path fill="#e1e1ca" d="M159.658 71.291h249.999v26.194H159.658z"/>
            </g>
            <path d="M404.628 89.312H163.43l.167-28.499 14.083-11.735h212.698l14.083 11.735.167 28.499z" fill="none" stroke="#e3e3c2" stroke-width=".68"/>
            <path id="Board-shadow" serif:id="Board shadow" d="M163.43 89.103h241.188v.013l-.619.825h-239.94l-.629-.838z" fill="#282828"/>
            <g transform="matrix(1 0 0 1 -240.807 -1531.52)">
              <path d="M441.774 1603.1v4.553c0 1.101.184 1.863.554 2.285.369.422 1.168.633 2.399.633v1.951h-12.428v-1.951h.369c1.196 0 1.972-.22 2.329-.66.358-.439.537-1.192.537-2.258v-14.098c0-1.09-.185-1.849-.554-2.276-.369-.428-1.14-.642-2.312-.642h-.369v-1.951h12.709v1.951h-.387c-1.183 0-1.954.22-2.311.659-.357.44-.536 1.193-.536 2.259v6.645l6.451-5.942c1.125-1.031 1.687-1.875 1.687-2.531 0-.727-.709-1.09-2.126-1.09v-1.951h10.546v1.951c-.961 0-1.968.246-3.023.738-1.055.493-2.549 1.635-4.482 3.428l-2.163 2.004 6.557 9.738c1.102 1.641 2.013 2.722 2.733 3.243.721.522 1.685.783 2.892.783v1.951h-13.693v-1.951c1.781 0 2.672-.358 2.672-1.073 0-.304-.364-.984-1.09-2.039l-4.535-6.609-2.426 2.25zM463.84 1600.54c0-2.145.598-4.237 1.793-6.276 1.195-2.039 2.815-3.548 4.86-4.526 2.045-.979 4.234-1.468 6.566-1.468 4.195 0 7.485 1.21 9.87 3.63 2.385 2.42 3.577 5.388 3.577 8.903 0 3.34-1.189 6.211-3.568 8.614-2.379 2.402-5.614 3.603-9.703 3.603-2.801 0-5.277-.592-7.427-1.775-2.151-1.184-3.683-2.775-4.597-4.773-.914-1.998-1.371-3.975-1.371-5.932zm7.348-.194c0 3.668.492 6.314 1.476 7.937.985 1.623 2.449 2.434 4.395 2.434 2.027 0 3.556-.741 4.588-2.223 1.031-1.483 1.546-4.081 1.546-7.796 0-3.399-.483-5.936-1.45-7.612-.967-1.675-2.505-2.513-4.614-2.513-1.992 0-3.48.779-4.465 2.338-.984 1.558-1.476 4.037-1.476 7.435zM508.162 1612.52l-8.859-18.58v12.322c0 1.102.076 1.913.228 2.435.153.521.507.963 1.064 1.327.556.363 1.233.545 2.03.545v1.951h-8.578v-1.951c.75 0 1.4-.197 1.951-.589.551-.393.888-.844 1.011-1.354.123-.509.184-1.327.184-2.452v-12.533c0-1.195-.208-1.995-.624-2.399-.416-.405-1.256-.607-2.522-.607v-1.951h9.545l7.348 15.662 7.417-15.662h9.581v1.951h-.475c-1.195 0-1.972.22-2.329.659-.358.44-.536 1.193-.536 2.259v14.098c0 1.09.184 1.848.553 2.276.37.428 1.14.642 2.312.642h.545v1.951h-12.973v-1.951h.475c1.183 0 1.954-.22 2.311-.66.358-.439.536-1.192.536-2.258v-14.01l-8.824 18.879h-1.371zM542.435 1602.75l-5.361-8.964c-.844-1.407-1.5-2.283-1.969-2.628-.469-.346-1.09-.519-1.863-.519v-1.951h11.953v1.951c-1.289 0-1.934.346-1.934 1.037 0 .387.241.979.721 1.776l3.903 6.468 3.585-5.976c.375-.61.563-1.19.563-1.74 0-1.043-.768-1.565-2.303-1.565v-1.951h8.174v1.951c-.762 0-1.444.281-2.048.844-.603.562-1.468 1.752-2.593 3.568l-4.517 7.313v5.291c0 1.09.184 1.848.554 2.276.369.428 1.133.642 2.293.642h.37v1.951h-12.78v-1.951h.387c1.195 0 1.972-.22 2.329-.66.358-.439.536-1.192.536-2.258v-4.905zM562.154 1590.64v-1.951h12.586v1.951h-.404c-1.184 0-1.951.217-2.303.65-.351.434-.527 1.19-.527 2.268v9.404c0 1.711.141 3.059.422 4.043.281.985.896 1.823 1.846 2.514.949.691 2.086 1.037 3.41 1.037 1.441 0 2.675-.369 3.7-1.107 1.025-.739 1.69-1.638 1.995-2.699.305-1.06.457-2.54.457-4.438v-8.016c0-2.437-1.178-3.656-3.533-3.656v-1.951h8.824v1.951c-.504 0-1.031.144-1.582.431-.551.287-.932.685-1.143 1.195-.21.51-.316 1.222-.316 2.136v7.963c0 1.711-.108 3.108-.325 4.192-.217 1.084-.73 2.127-1.538 3.129-.809 1.002-1.934 1.808-3.375 2.417-1.442.609-3.041.914-4.799.914-1.84 0-3.489-.302-4.948-.905-1.459-.604-2.575-1.365-3.349-2.285-.773-.92-1.298-1.922-1.573-3.006-.276-1.084-.413-2.37-.413-3.859v-9.404c0-1.125-.194-1.893-.58-2.303-.387-.41-1.231-.615-2.532-.615zM602.256 1590.81h-2.004c-1.195 0-2.074.129-2.637.387-.562.257-1.034.77-1.415 1.538-.381.767-.612 1.678-.694 2.733h-1.987v-6.785h23.854v6.785h-1.986c-.375-1.828-.903-3.061-1.582-3.7-.68-.639-1.764-.958-3.252-.958h-2.057v16.84c0 1.09.185 1.848.554 2.276.369.428 1.145.642 2.329.642h.615v1.951h-13.166v-1.951h.563c1.195 0 1.971-.22 2.329-.66.357-.439.536-1.192.536-2.258v-16.84z" fill="none" stroke="#9d8f75" stroke-width="5" stroke-linecap="butt" stroke-miterlimit="1.414"/>
              <clipPath id="_clip4">
                <path d="M441.774 1603.1v4.553c0 1.101.184 1.863.554 2.285.369.422 1.168.633 2.399.633v1.951h-12.428v-1.951h.369c1.196 0 1.972-.22 2.329-.66.358-.439.537-1.192.537-2.258v-14.098c0-1.09-.185-1.849-.554-2.276-.369-.428-1.14-.642-2.312-.642h-.369v-1.951h12.709v1.951h-.387c-1.183 0-1.954.22-2.311.659-.357.44-.536 1.193-.536 2.259v6.645l6.451-5.942c1.125-1.031 1.687-1.875 1.687-2.531 0-.727-.709-1.09-2.126-1.09v-1.951h10.546v1.951c-.961 0-1.968.246-3.023.738-1.055.493-2.549 1.635-4.482 3.428l-2.163 2.004 6.557 9.738c1.102 1.641 2.013 2.722 2.733 3.243.721.522 1.685.783 2.892.783v1.951h-13.693v-1.951c1.781 0 2.672-.358 2.672-1.073 0-.304-.364-.984-1.09-2.039l-4.535-6.609-2.426 2.25zm22.066-2.566c0-2.145.598-4.237 1.793-6.276 1.195-2.039 2.815-3.548 4.86-4.526 2.045-.979 4.234-1.468 6.566-1.468 4.195 0 7.485 1.21 9.87 3.63 2.385 2.42 3.577 5.388 3.577 8.903 0 3.34-1.189 6.211-3.568 8.614-2.379 2.402-5.614 3.603-9.703 3.603-2.801 0-5.277-.592-7.427-1.775-2.151-1.184-3.683-2.775-4.597-4.773-.914-1.998-1.371-3.975-1.371-5.932zm7.348-.194c0 3.668.492 6.314 1.476 7.937.985 1.623 2.449 2.434 4.395 2.434 2.027 0 3.556-.741 4.588-2.223 1.031-1.483 1.546-4.081 1.546-7.796 0-3.399-.483-5.936-1.45-7.612-.967-1.675-2.505-2.513-4.614-2.513-1.992 0-3.48.779-4.465 2.338-.984 1.558-1.476 4.037-1.476 7.435zm36.974 12.182l-8.859-18.58v12.322c0 1.102.076 1.913.228 2.435.153.521.507.963 1.064 1.327.556.363 1.233.545 2.03.545v1.951h-8.578v-1.951c.75 0 1.4-.197 1.951-.589.551-.393.888-.844 1.011-1.354.123-.509.184-1.327.184-2.452v-12.533c0-1.195-.208-1.995-.624-2.399-.416-.405-1.256-.607-2.522-.607v-1.951h9.545l7.348 15.662 7.417-15.662h9.581v1.951h-.475c-1.195 0-1.972.22-2.329.659-.358.44-.536 1.193-.536 2.259v14.098c0 1.09.184 1.848.553 2.276.37.428 1.14.642 2.312.642h.545v1.951h-12.973v-1.951h.475c1.183 0 1.954-.22 2.311-.66.358-.439.536-1.192.536-2.258v-14.01l-8.824 18.879h-1.371zm34.273-9.774l-5.361-8.964c-.844-1.407-1.5-2.283-1.969-2.628-.469-.346-1.09-.519-1.863-.519v-1.951h11.953v1.951c-1.289 0-1.934.346-1.934 1.037 0 .387.241.979.721 1.776l3.903 6.468 3.585-5.976c.375-.61.563-1.19.563-1.74 0-1.043-.768-1.565-2.303-1.565v-1.951h8.174v1.951c-.762 0-1.444.281-2.048.844-.603.562-1.468 1.752-2.593 3.568l-4.517 7.313v5.291c0 1.09.184 1.848.554 2.276.369.428 1.133.642 2.293.642h.37v1.951h-12.78v-1.951h.387c1.195 0 1.972-.22 2.329-.66.358-.439.536-1.192.536-2.258v-4.905zm19.719-12.111v-1.951h12.586v1.951h-.404c-1.184 0-1.951.217-2.303.65-.351.434-.527 1.19-.527 2.268v9.404c0 1.711.141 3.059.422 4.043.281.985.896 1.823 1.846 2.514.949.691 2.086 1.037 3.41 1.037 1.441 0 2.675-.369 3.7-1.107 1.025-.739 1.69-1.638 1.995-2.699.305-1.06.457-2.54.457-4.438v-8.016c0-2.437-1.178-3.656-3.533-3.656v-1.951h8.824v1.951c-.504 0-1.031.144-1.582.431-.551.287-.932.685-1.143 1.195-.21.51-.316 1.222-.316 2.136v7.963c0 1.711-.108 3.108-.325 4.192-.217 1.084-.73 2.127-1.538 3.129-.809 1.002-1.934 1.808-3.375 2.417-1.442.609-3.041.914-4.799.914-1.84 0-3.489-.302-4.948-.905-1.459-.604-2.575-1.365-3.349-2.285-.773-.92-1.298-1.922-1.573-3.006-.276-1.084-.413-2.37-.413-3.859v-9.404c0-1.125-.194-1.893-.58-2.303-.387-.41-1.231-.615-2.532-.615zm40.102.176h-2.004c-1.195 0-2.074.129-2.637.387-.562.257-1.034.77-1.415 1.538-.381.767-.612 1.678-.694 2.733h-1.987v-6.785h23.854v6.785h-1.986c-.375-1.828-.903-3.061-1.582-3.7-.68-.639-1.764-.958-3.252-.958h-2.057v16.84c0 1.09.185 1.848.554 2.276.369.428 1.145.642 2.329.642h.615v1.951h-13.166v-1.951h.563c1.195 0 1.971-.22 2.329-.66.357-.439.536-1.192.536-2.258v-16.84z" clip-rule="nonzero"/>
              </clipPath>
              <g clip-path="url(#_clip4)">
                <path d="M441.774 1603.1v4.553c0 1.101.184 1.863.554 2.285.369.422 1.168.633 2.399.633v1.951h-12.428v-1.951h.369c1.196 0 1.972-.22 2.329-.66.358-.439.537-1.192.537-2.258v-14.098c0-1.09-.185-1.849-.554-2.276-.369-.428-1.14-.642-2.312-.642h-.369v-1.951h12.709v1.951h-.387c-1.183 0-1.954.22-2.311.659-.357.44-.536 1.193-.536 2.259v6.645l6.451-5.942c1.125-1.031 1.687-1.875 1.687-2.531 0-.727-.709-1.09-2.126-1.09v-1.951h10.546v1.951c-.961 0-1.968.246-3.023.738-1.055.493-2.549 1.635-4.482 3.428l-2.163 2.004 6.557 9.738c1.102 1.641 2.013 2.722 2.733 3.243.721.522 1.685.783 2.892.783v1.951h-13.693v-1.951c1.781 0 2.672-.358 2.672-1.073 0-.304-.364-.984-1.09-2.039l-4.535-6.609-2.426 2.25zM463.84 1600.54c0-2.145.598-4.237 1.793-6.276 1.195-2.039 2.815-3.548 4.86-4.526 2.045-.979 4.234-1.468 6.566-1.468 4.195 0 7.485 1.21 9.87 3.63 2.385 2.42 3.577 5.388 3.577 8.903 0 3.34-1.189 6.211-3.568 8.614-2.379 2.402-5.614 3.603-9.703 3.603-2.801 0-5.277-.592-7.427-1.775-2.151-1.184-3.683-2.775-4.597-4.773-.914-1.998-1.371-3.975-1.371-5.932zm7.348-.194c0 3.668.492 6.314 1.476 7.937.985 1.623 2.449 2.434 4.395 2.434 2.027 0 3.556-.741 4.588-2.223 1.031-1.483 1.546-4.081 1.546-7.796 0-3.399-.483-5.936-1.45-7.612-.967-1.675-2.505-2.513-4.614-2.513-1.992 0-3.48.779-4.465 2.338-.984 1.558-1.476 4.037-1.476 7.435zM508.162 1612.52l-8.859-18.58v12.322c0 1.102.076 1.913.228 2.435.153.521.507.963 1.064 1.327.556.363 1.233.545 2.03.545v1.951h-8.578v-1.951c.75 0 1.4-.197 1.951-.589.551-.393.888-.844 1.011-1.354.123-.509.184-1.327.184-2.452v-12.533c0-1.195-.208-1.995-.624-2.399-.416-.405-1.256-.607-2.522-.607v-1.951h9.545l7.348 15.662 7.417-15.662h9.581v1.951h-.475c-1.195 0-1.972.22-2.329.659-.358.44-.536 1.193-.536 2.259v14.098c0 1.09.184 1.848.553 2.276.37.428 1.14.642 2.312.642h.545v1.951h-12.973v-1.951h.475c1.183 0 1.954-.22 2.311-.66.358-.439.536-1.192.536-2.258v-14.01l-8.824 18.879h-1.371zM542.435 1602.75l-5.361-8.964c-.844-1.407-1.5-2.283-1.969-2.628-.469-.346-1.09-.519-1.863-.519v-1.951h11.953v1.951c-1.289 0-1.934.346-1.934 1.037 0 .387.241.979.721 1.776l3.903 6.468 3.585-5.976c.375-.61.563-1.19.563-1.74 0-1.043-.768-1.565-2.303-1.565v-1.951h8.174v1.951c-.762 0-1.444.281-2.048.844-.603.562-1.468 1.752-2.593 3.568l-4.517 7.313v5.291c0 1.09.184 1.848.554 2.276.369.428 1.133.642 2.293.642h.37v1.951h-12.78v-1.951h.387c1.195 0 1.972-.22 2.329-.66.358-.439.536-1.192.536-2.258v-4.905zM562.154 1590.64v-1.951h12.586v1.951h-.404c-1.184 0-1.951.217-2.303.65-.351.434-.527 1.19-.527 2.268v9.404c0 1.711.141 3.059.422 4.043.281.985.896 1.823 1.846 2.514.949.691 2.086 1.037 3.41 1.037 1.441 0 2.675-.369 3.7-1.107 1.025-.739 1.69-1.638 1.995-2.699.305-1.06.457-2.54.457-4.438v-8.016c0-2.437-1.178-3.656-3.533-3.656v-1.951h8.824v1.951c-.504 0-1.031.144-1.582.431-.551.287-.932.685-1.143 1.195-.21.51-.316 1.222-.316 2.136v7.963c0 1.711-.108 3.108-.325 4.192-.217 1.084-.73 2.127-1.538 3.129-.809 1.002-1.934 1.808-3.375 2.417-1.442.609-3.041.914-4.799.914-1.84 0-3.489-.302-4.948-.905-1.459-.604-2.575-1.365-3.349-2.285-.773-.92-1.298-1.922-1.573-3.006-.276-1.084-.413-2.37-.413-3.859v-9.404c0-1.125-.194-1.893-.58-2.303-.387-.41-1.231-.615-2.532-.615zM602.256 1590.81h-2.004c-1.195 0-2.074.129-2.637.387-.562.257-1.034.77-1.415 1.538-.381.767-.612 1.678-.694 2.733h-1.987v-6.785h23.854v6.785h-1.986c-.375-1.828-.903-3.061-1.582-3.7-.68-.639-1.764-.958-3.252-.958h-2.057v16.84c0 1.09.185 1.848.554 2.276.369.428 1.145.642 2.329.642h.615v1.951h-13.166v-1.951h.563c1.195 0 1.971-.22 2.329-.66.357-.439.536-1.192.536-2.258v-16.84z" fill="#fff" fill-rule="nonzero"/>
                <path fill="#fefe26" d="M215 402h1053v215H215z" transform="matrix(.20956 0 0 .20956 352.945 1514.76)"/>
                <path fill="#fedc26" d="M215 402h1053v215H215z" transform="matrix(.20956 0 0 .20956 352.945 1517.69)"/>
                <path fill="#feb926" d="M215 402h1053v215H215z" transform="matrix(.20956 0 0 .20956 352.945 1520.42)"/>
              </g>
            </g>
          </g>
          <path id="Windsheld-base" serif:id="Windsheld base" d="M404.837 144.216H163.64l-.629 40.863h241.826v-40.863z" fill="#ba0820"/>
          <path id="Windsheld" d="M389.561 91.722l.07.002.069.002.069.003.068.004.069.005.068.005.136.014.067.008.135.019.066.011.067.012.067.012.065.013.066.014.066.014.065.016.065.016.064.017.064.018.128.038.063.02.063.021.062.021.063.023.062.023.061.024.061.024.061.026.06.026.061.027.059.027.059.028.059.028.058.03.058.03.058.031.114.064.056.033.055.032.056.035.055.035.054.035.055.036.053.037.053.037.052.038.052.038.052.039.051.041.051.039.05.041.049.042.049.042.049.043.048.042.047.044.047.044.047.046.046.045.045.046.046.046.043.047.044.047.044.049.042.048.042.049.041.05.042.051.04.05.039.051.04.052.038.051.038.053.037.054.037.053.036.054.035.054.035.055.034.056.033.056.033.055.032.057.032.058.03.057.031.057.029.059.057.118.027.059.053.121.026.061.024.061.024.061.023.062.022.063.022.061.021.063.02.064.019.063.019.064.018.066.016.063.017.065.015.066.015.064.014.066.013.067.013.066.011.066.01.067.011.067.008.068.009.066.007.068.012.138.005.067.007.138.002.069.001.069v.012l3.14 37.578.004.121-.001.071-.004.086-.005.087-.008.086-.011.085-.012.084-.015.084-.016.083-.019.083-.02.082-.023.08-.024.079-.025.08-.028.077-.029.078-.032.076-.032.074-.034.074-.034.073-.037.073-.038.071-.039.07-.04.069-.042.07-.043.067-.043.066-.045.066-.046.064-.047.065-.047.063-.049.062-.05.061-.05.06-.052.061-.052.059-.052.057-.055.058-.054.057-.055.056-.056.056-.057.054-.057.054-.058.053-.058.053-.06.052-.059.051-.061.051-.061.049-.062.05-.062.049-.063.048-.063.048-.064.046-.064.047-.064.045-.065.046-.066.044-.066.044-.067.043-.066.044-.068.042-.067.041-.068.042-.069.04-.068.041-.07.039-.069.039-.07.038-.07.038-.071.037-.07.037-.071.036-.071.036-.071.035-.072.035-.072.034-.072.033-.072.033-.072.032-.074.033-.144.061-.146.06-.147.057-.147.055-.147.053-.147.051-.147.048-.148.045-.146.044-.148.041-.144.038-.076.019-.072.017-.074.017-.072.017-.074.016-.072.015-.072.014-.073.014-.073.013-.072.012-.072.013-.072.01-.071.011-.071.01-.072.009-.072.009-.07.007-.071.007-.071.006-.07.005-.071.004-.07.004-.07.003-.07.003-.07.001h-212.74l-.068-.001-.069-.002-.069-.004-.069-.003-.069-.005-.069-.004-.07-.007-.07-.006-.07-.008-.07-.007-.07-.009-.07-.01-.071-.01-.07-.011-.071-.011-.071-.012-.072-.013-.071-.014-.073-.014-.141-.029-.144-.033-.144-.035-.144-.038-.145-.039-.144-.042-.146-.045-.144-.047-.146-.049-.144-.051-.145-.053-.144-.056-.144-.058-.143-.06-.143-.062-.142-.064-.14-.066-.072-.035-.071-.035-.069-.035-.07-.035-.07-.037-.069-.037-.069-.037-.069-.037-.068-.039-.068-.039-.068-.039-.067-.04-.067-.041-.067-.041-.066-.041-.066-.042-.066-.043-.064-.043-.065-.044-.064-.044-.064-.045-.063-.046-.063-.046-.063-.046-.062-.048-.061-.048-.06-.048-.061-.049-.059-.049-.059-.051-.059-.05-.058-.052-.057-.052-.057-.053-.056-.053-.056-.055-.054-.055-.054-.055-.053-.056-.053-.057-.052-.058-.051-.058-.05-.059-.05-.06-.048-.061-.048-.061-.046-.063-.046-.063-.045-.064-.044-.065-.042-.065-.042-.067-.041-.068-.039-.068-.038-.07-.038-.069-.035-.072-.035-.072-.032-.073-.032-.073-.03-.075-.029-.076-.027-.078-.025-.077-.024-.078-.022-.08-.02-.08-.018-.081-.017-.082-.014-.083-.012-.082-.011-.084-.008-.085-.007-.098-.002-.077.001-.069.003-.069.004-.055 3.14-37.578v-.013l.001-.069.002-.069.003-.069.004-.069.005-.067.005-.069.007-.068.007-.068.008-.068.009-.067.01-.067.011-.067.011-.066.012-.066.014-.067.014-.065.014-.066.015-.064.017-.066.017-.065.018-.064.018-.064.02-.063.02-.064.021-.062.022-.063.022-.062.023-.062.024-.061.024-.062.025-.06.026-.061.027-.059.028-.06.027-.059.03-.059.029-.059.03-.057.031-.058.031-.057.033-.057.032-.056.034-.056.034-.055.035-.055.035-.054.036-.054.037-.054.037-.053.038-.052.038-.053.039-.051.04-.051.04-.051.041-.05.041-.05.042-.049.043-.048.043-.048.044-.048.044-.047.045-.046.046-.046.046-.045.046-.045.047-.044.047-.045.049-.043.048-.042.049-.042.05-.042.05-.04.05-.041.052-.04.051-.038.052-.039.053-.038.053-.037.053-.037.055-.036.054-.035.055-.035.056-.034.055-.033.056-.033.057-.032.057-.032.058-.031.058-.03.058-.03.058-.028.059-.028.06-.028.06-.026.06-.026.062-.026.061-.024.061-.024.062-.023.062-.023.063-.021.063-.021.063-.02.064-.019.064-.019.063-.018.065-.017.065-.016.065-.016.065-.014.066-.014.066-.013.066-.012.067-.012.067-.011.067-.009.067-.01.068-.008.068-.007.067-.007.069-.005.068-.005.069-.004.069-.003.068-.002.07-.002h210.645zm-210.576 1.257l-.053.001-.054.001-.053.002-.053.002-.052.003-.053.004-.052.004-.052.005-.052.006-.052.006-.051.007-.052.007-.051.008-.051.009-.051.009-.051.011-.05.01-.05.011-.05.012-.049.013-.05.013-.049.013-.049.015-.049.015-.048.015-.048.016-.048.016-.048.018-.047.017-.047.019-.046.018-.047.02-.046.019-.047.021-.045.021-.046.022-.044.021-.045.023-.044.023-.045.024-.043.024-.043.025-.044.025-.043.025-.042.026-.042.027-.042.028-.041.027-.041.028-.041.029-.041.028-.04.03-.039.03-.04.031-.038.031-.039.031-.038.032-.037.032-.038.033-.036.033-.037.034-.036.034-.036.034-.035.035-.035.035-.035.036-.034.036-.033.036-.033.038-.033.036-.032.038-.032.038-.032.039-.031.039-.03.039-.03.04-.029.04-.03.04-.028.041-.028.041-.028.041-.027.042-.027.042-.026.043-.026.043-.025.042-.024.044-.024.044-.024.044-.023.044-.022.045-.023.045-.022.045-.02.046-.021.046-.02.046-.019.046-.019.047-.018.047-.018.048-.017.047-.016.048-.016.048-.016.049-.014.048-.014.049-.015.05-.013.049-.012.05-.012.049-.011.051-.011.05-.01.05-.009.051-.009.051-.008.052-.007.05-.008.052-.006.052-.005.052-.005.052-.005.053-.003.052-.004.053-.002.053-.002.053v.053l-.001.053-3.142 37.62-.002.028-.002.029v.028l.001.029.003.051.005.053.007.051.007.053.009.051.01.051.012.051.013.052.014.05.015.051.017.05.018.05.019.051.019.049.021.05.023.049.024.049.024.049.026.049.026.048.028.049.029.047.03.048.031.048.032.047.032.047.034.047.035.046.036.046.037.046.037.046.039.045.038.045.041.045.041.044.084.088.088.087.045.043.046.043.047.042.047.042.048.041.097.083.051.04.051.041.051.04.104.079.053.039.054.038.108.076.056.038.056.036.113.074.057.036.116.07.058.035.118.068.06.033.06.033.121.066.062.031.061.032.123.061.063.03.124.059.126.057.127.055.127.053.127.051.128.049.128.048.128.045.128.043.128.042.127.039.128.037.126.034.126.033.125.031.125.028.123.026.061.012.061.012.061.01.06.011.12.019.118.016.058.007.058.007.058.006.057.005.056.005.057.004.055.004.055.003.109.004.107.001H390.54l.054-.001h.054l.055-.002.056-.002.056-.004.057-.003.057-.004.057-.006.058-.005.059-.006.059-.007.059-.007.06-.009.06-.008.061-.01.061-.01.061-.011.062-.011.062-.012.062-.012.063-.013.063-.014.063-.014.063-.015.064-.016.064-.015.128-.034.129-.036.129-.038.13-.04.13-.043.13-.045.13-.046.13-.049.13-.051.129-.053.129-.054.064-.029.064-.028.064-.029.063-.03.064-.029.063-.031.063-.031.062-.032.063-.031.062-.032.061-.034.062-.032.061-.034.06-.034.061-.035.059-.034.06-.036.059-.035.059-.037.057-.036.058-.037.057-.037.057-.038.056-.038.056-.039.055-.038.054-.04.054-.039.053-.04.052-.041.052-.041.051-.04.051-.042.05-.041.048-.042.049-.043.048-.043.047-.043.046-.043.045-.044.045-.044.044-.045.043-.044.042-.045.041-.046.04-.045.04-.046.038-.047.038-.046.036-.047.036-.047.035-.047.033-.048.033-.048.032-.048.03-.048.03-.049.028-.049.028-.049.026-.049.025-.05.024-.05.023-.05.021-.05.021-.051.019-.05.018-.051.017-.052.016-.051.014-.051.013-.053.012-.051.01-.053.009-.052.008-.053.006-.052.005-.053.004-.053.002-.054.001-.053-3.144-37.625v-.053l-.001-.053-.002-.053-.002-.053-.003-.053-.003-.052-.005-.053-.005-.052-.005-.052-.007-.052-.007-.052-.007-.05-.009-.052-.008-.051-.01-.051-.009-.05-.011-.05-.012-.051-.011-.049-.013-.05-.013-.049-.014-.05-.014-.049-.015-.048-.015-.049-.016-.048-.016-.048-.017-.047-.018-.048-.018-.047-.019-.047-.02-.046-.02-.046-.02-.046-.021-.046-.021-.045-.023-.045-.022-.045-.023-.044-.024-.044-.024-.044-.025-.044-.025-.042-.025-.043-.027-.043-.026-.042-.027-.042-.028-.041-.028-.041-.029-.041-.029-.04-.03-.04-.03-.04-.03-.039-.031-.039-.031-.039-.032-.038-.032-.038-.033-.036-.033-.038-.034-.036-.034-.036-.034-.036-.035-.035-.035-.035-.036-.034-.036-.034-.037-.034-.036-.033-.038-.033-.038-.032-.038-.032-.038-.031-.039-.031-.039-.031-.04-.03-.04-.03-.04-.028-.041-.029-.041-.028-.041-.027-.042-.028-.042-.027-.042-.026-.043-.025-.044-.025-.043-.025-.044-.024-.044-.024-.045-.023-.044-.023-.045-.021-.045-.022-.046-.021-.046-.021-.046-.019-.047-.02-.047-.018-.047-.019-.047-.017-.048-.018-.047-.016-.048-.016-.049-.015-.048-.015-.049-.015-.049-.013-.05-.013-.049-.013-.051-.012-.049-.011-.051-.01-.05-.011-.051-.009-.051-.009-.051-.008-.052-.007-.052-.007-.051-.006-.052-.006-.052-.005-.053-.004-.052-.004-.053-.003-.053-.002-.053-.002-.053-.001-.054-.001H178.985z" fill="#281f00"/>
          <path d="M393.626 97.113c-.001-2.267-1.866-4.132-4.134-4.134H178.985c-2.267.002-4.133 1.867-4.134 4.134l-3.142 37.62a.724.724 0 0 0-.003.114c.127 2.231 3.986 4.025 6.232 4.025H390.54c2.282 0 6.23-1.853 6.23-4.134l-3.144-37.625z" fill="#dadada"/>
          <clipPath id="_clip5">
            <path d="M393.626 97.113c-.001-2.267-1.866-4.132-4.134-4.134H178.985c-2.267.002-4.133 1.867-4.134 4.134l-3.142 37.62a.724.724 0 0 0-.003.114c.127 2.231 3.986 4.025 6.232 4.025H390.54c2.282 0 6.23-1.853 6.23-4.134l-3.144-37.625z"/>
          </clipPath>
          <g clip-path="url(#_clip5)">
            <path d="M377.805 90.031l-18.424-14.849-59.216 73.47 18.424 14.849 59.216-73.47zM315.06 87.04l-11.002-8.867-59.215 73.47 11.001 8.867 59.216-73.47zm78.208-6.623l-2.785-2.244-59.216 73.47 2.785 2.244 59.216-73.47zM241.345 90.541l-15.346-12.368-59.216 73.47 15.346 12.368 59.216-73.47z" fill="#e9e9e9"/>
            <path fill="#ffb700" d="M166.783 124.285h234.701v18.568H166.783z"/>
            <g id="Sticker">
              <path d="M192.245 97.656a1.436 1.436 0 0 0-1.429-1.428h-10.554c-.784 0-1.429.644-1.429 1.428l-.838 9.716c0 .788.64 1.429 1.429 1.429h10.554c.788 0 1.638-.641 1.638-1.429l.629-9.716z" fill="#fff"/>
              <path d="M182.193 105.672l-.426-.077c.037-.258.119-.452.245-.581a.625.625 0 0 1 .466-.195c.199 0 .359.066.481.198.121.131.182.307.182.528 0 .172-.045.34-.134.503-.067.12-.202.296-.406.529a4.291 4.291 0 0 0-.379.471h.768l-.083.482h-1.345c.023-.199.087-.39.192-.572.071-.123.238-.336.499-.639.191-.221.312-.375.365-.461a.624.624 0 0 0 .103-.316.345.345 0 0 0-.067-.226.207.207 0 0 0-.165-.082c-.151 0-.25.146-.296.438zm1.101.98c0-.349.055-.682.167-1.001.111-.319.243-.545.395-.678a.57.57 0 0 1 .39-.154.53.53 0 0 1 .441.237c.116.158.174.389.174.693 0 .349-.054.682-.164 1.001-.11.318-.241.543-.394.678a.581.581 0 0 1-.392.148.534.534 0 0 1-.44-.233c-.118-.156-.177-.387-.177-.691zm.425.107c0 .144.02.246.058.305.039.059.088.089.149.089.076 0 .145-.043.208-.127.082-.115.154-.333.214-.655.061-.322.091-.571.091-.746 0-.136-.019-.233-.058-.293-.04-.059-.089-.089-.15-.089-.072 0-.137.042-.197.125-.093.132-.172.373-.237.724a3.737 3.737 0 0 0-.078.667zm1.463-.779l.081-.472c.374-.199.664-.43.867-.694h.264l-.466 2.716h-.437l.322-1.871c-.088.07-.191.135-.31.194-.102.052-.21.095-.321.127zm2.019.064a.632.632 0 0 1-.176-.215.627.627 0 0 1-.059-.273c0-.134.032-.26.095-.376a.677.677 0 0 1 .251-.269.668.668 0 0 1 .349-.092.6.6 0 0 1 .454.18.66.66 0 0 1 .174.479.667.667 0 0 1-.093.357.692.692 0 0 1-.281.25.631.631 0 0 1 .203.246.769.769 0 0 1 .067.33.99.99 0 0 1-.187.595.715.715 0 0 1-.608.322.599.599 0 0 1-.467-.204c-.122-.137-.183-.317-.183-.543 0-.186.042-.349.126-.491a.69.69 0 0 1 .335-.296zm.163-.453c0 .087.022.156.065.207.04.049.1.078.163.076a.263.263 0 0 0 .203-.104.375.375 0 0 0 .09-.254.327.327 0 0 0-.065-.214.205.205 0 0 0-.165-.08.263.263 0 0 0-.203.105.396.396 0 0 0-.088.264zm-.193 1.249a.37.37 0 0 0 .07.24.22.22 0 0 0 .177.084c.105 0 .189-.058.253-.172a.823.823 0 0 0 .095-.401.34.34 0 0 0-.072-.226.223.223 0 0 0-.177-.085c-.09 0-.17.05-.24.151a.698.698 0 0 0-.106.409z" fill="#100000" fill-rule="nonzero"/>
            </g>
          </g>
          <path d="M212.917 132.322l.731-.064a4.209 4.209 0 0 0-.069.624c0 .272.072.484.214.636a.725.725 0 0 0 .557.229.774.774 0 0 0 .435-.128.913.913 0 0 0 .317-.391c.082-.175.159-.477.231-.906l.874-5.103h.791l-.899 5.26c-.128.75-.341 1.281-.638 1.594a1.495 1.495 0 0 1-1.13.469c-.462 0-.824-.132-1.086-.395-.262-.264-.392-.656-.392-1.177 0-.219.021-.435.064-.648zm7.707.324l.713.089c-.119.507-.392.949-.821 1.325-.356.318-.754.477-1.193.477-.311 0-.594-.084-.85-.252-.255-.17-.458-.422-.609-.757-.151-.336-.226-.736-.226-1.201 0-.612.115-1.184.346-1.714.231-.53.514-.917.848-1.162a1.793 1.793 0 0 1 1.085-.365 1.5 1.5 0 0 1 1.21.564c.314.377.47.909.47 1.597 0 .255-.018.517-.055.785h-3.152c-.01.093-.015.187-.015.28 0 .491.093.864.28 1.117.186.254.411.381.673.381.248 0 .493-.099.734-.299.24-.2.428-.488.562-.865zm-2.117-1.291h2.402v-.182c0-.465-.091-.814-.275-1.046a.857.857 0 0 0-.703-.349c-.307 0-.59.131-.846.393-.257.262-.45.657-.578 1.184zm7.207 1.291l.713.089c-.118.507-.391.949-.821 1.325-.356.318-.754.477-1.193.477a1.51 1.51 0 0 1-.849-.252c-.256-.17-.459-.422-.61-.757-.15-.336-.226-.736-.226-1.201 0-.612.116-1.184.347-1.714.23-.53.513-.917.847-1.162a1.795 1.795 0 0 1 1.085-.365c.495 0 .898.188 1.211.564.313.377.469.909.469 1.597 0 .255-.018.517-.054.785h-3.153a3.282 3.282 0 0 0-.015.28c0 .491.093.864.28 1.117.187.254.411.381.673.381.248 0 .494-.099.734-.299.24-.2.428-.488.562-.865zm-2.117-1.291H226v-.182c0-.465-.092-.814-.275-1.046a.86.86 0 0 0-.703-.349c-.308 0-.591.131-.847.393-.257.262-.45.657-.578 1.184zm3.711 5.063l1.238-7.215h.672l-.128.728c.259-.329.487-.551.683-.669.197-.118.403-.176.619-.176.396 0 .731.178 1.005.535.273.356.409.879.409 1.567 0 .648-.11 1.239-.331 1.773-.221.533-.513.946-.877 1.237-.281.226-.576.339-.883.339-.515 0-.913-.318-1.194-.953l-.487 2.834h-.726zm1.434-3.958c0 .438.089.773.268 1.004.178.231.402.346.67.346.213 0 .399-.07.56-.211.229-.203.427-.538.594-1.004.167-.467.25-.937.25-1.412 0-.446-.089-.787-.267-1.024-.179-.238-.395-.356-.651-.356-.203 0-.409.09-.619.272-.209.182-.396.502-.56.96a4.22 4.22 0 0 0-.245 1.425zm4.014 1.959l.894-5.216h.658l-.152.909c.308-.387.588-.654.84-.803.252-.149.496-.223.732-.223.33 0 .598.111.803.333.205.223.307.539.307.948 0 .184-.036.482-.108.894l-.54 3.158h-.732l.569-3.305c.056-.324.084-.563.084-.717a.577.577 0 0 0-.154-.425.572.572 0 0 0-.421-.155c-.367 0-.696.162-.989.486-.293.324-.508.888-.646 1.69l-.418 2.426h-.727zm8.229-1.773l.712.089c-.118.507-.391.949-.82 1.325-.357.318-.754.477-1.193.477-.311 0-.594-.084-.85-.252-.255-.17-.458-.422-.609-.757-.151-.336-.226-.736-.226-1.201 0-.612.115-1.184.346-1.714.231-.53.514-.917.848-1.162a1.793 1.793 0 0 1 1.085-.365 1.5 1.5 0 0 1 1.21.564c.313.377.47.909.47 1.597 0 .255-.018.517-.055.785h-3.152c-.01.093-.015.187-.015.28 0 .491.093.864.279 1.117.187.254.411.381.674.381.248 0 .493-.099.734-.299.24-.2.428-.488.562-.865zm-2.117-1.291h2.402v-.182c0-.465-.091-.814-.275-1.046a.857.857 0 0 0-.703-.349c-.307 0-.59.131-.847.393-.256.262-.449.657-.577 1.184zm3.794 5.078l.044-.835c.151.052.296.079.437.079.148 0 .265-.04.354-.118.124-.112.256-.316.393-.614l.231-.511-.713-5.231h.717l.324 2.638c.066.527.122 1.047.167 1.561l1.911-4.199h.761l-2.725 5.909c-.272.596-.512.982-.72 1.159a1.033 1.033 0 0 1-.685.265c-.17 0-.336-.034-.496-.103zm7.7-2.014l.894-5.216h.644l-.182 1.066c.429-.789.859-1.183 1.291-1.183.148 0 .328.064.54.191l-.299.825a.609.609 0 0 0-.403-.167c-.268 0-.536.176-.803.528-.267.352-.475.973-.626 1.864l-.363 2.092h-.693zm3.376-1.979c0-.94.211-1.734.634-2.382.422-.648.989-.972 1.699-.972.477-.01.932.201 1.233.572.324.381.486.924.486 1.628 0 .645-.11 1.221-.332 1.729-.22.507-.507.888-.859 1.141-.352.254-.721.381-1.107.381a1.6 1.6 0 0 1-1.257-.562c-.331-.375-.497-.886-.497-1.535zm.732-.088c0 .494.098.867.295 1.12.196.252.441.378.736.378.233 0 .465-.095.698-.283.233-.188.435-.5.609-.936.172-.426.26-.881.26-1.34 0-.498-.098-.876-.295-1.132-.196-.258-.439-.386-.727-.386-.251 0-.497.094-.734.28-.237.187-.437.496-.599.926a3.873 3.873 0 0 0-.243 1.373zm7.148 1.124c-.514.707-1.04 1.061-1.577 1.061-.311 0-.572-.111-.783-.334-.211-.223-.317-.509-.317-.859 0-.223.046-.6.138-1.13l.515-3.011h.728l-.57 3.335a3.983 3.983 0 0 0-.074.644c0 .206.051.362.152.469.102.106.244.159.428.159.258 0 .516-.103.773-.312a1.83 1.83 0 0 0 .565-.78c.119-.313.223-.733.312-1.26l.388-2.255h.727l-.894 5.216h-.673l.162-.943zm3.877.221l-.127.727a1.646 1.646 0 0 1-.506.084c-.273 0-.487-.073-.646-.217a.742.742 0 0 1-.238-.579c0-.115.036-.378.108-.791l.515-3.03h-.575l.119-.688h.574l.221-1.281.835-.614-.324 1.895h.712l-.117.688h-.713l-.496 2.883c-.062.37-.093.588-.093.653 0 .115.026.198.078.25.053.053.133.079.241.079.16 0 .305-.02.432-.059zm4.231-1.051l.712.089c-.118.507-.392.949-.82 1.325-.357.318-.755.477-1.193.477a1.513 1.513 0 0 1-.851-.252c-.255-.17-.457-.422-.608-.757-.151-.336-.226-.736-.226-1.201 0-.612.115-1.184.346-1.714.231-.53.513-.917.847-1.162a1.805 1.805 0 0 1 1.086-.365 1.5 1.5 0 0 1 1.21.564c.313.377.469.909.469 1.597 0 .255-.018.517-.054.785h-3.153a2.916 2.916 0 0 0-.014.28c0 .491.093.864.279 1.117.187.254.411.381.673.381.249 0 .494-.099.735-.299.24-.2.427-.488.562-.865zm-2.117-1.291h2.401v-.182c0-.465-.091-.814-.275-1.046a.857.857 0 0 0-.702-.349c-.308 0-.59.131-.847.393s-.449.657-.577 1.184zm4.108 1.281l.732-.053c-.004.425.09.743.28.952.19.21.448.315.776.315.298 0 .533-.075.707-.224a.722.722 0 0 0 .26-.572.702.702 0 0 0-.162-.452c-.111-.134-.352-.298-.722-.491-.426-.222-.706-.394-.842-.513a1.23 1.23 0 0 1-.317-.438 1.411 1.411 0 0 1-.113-.577c0-.435.141-.794.423-1.075.281-.282.651-.422 1.109-.422.508 0 .909.144 1.204.434.294.29.449.695.462 1.216l-.718.058c-.009-.327-.104-.579-.282-.755-.179-.178-.419-.266-.719-.266a.83.83 0 0 0-.575.199.603.603 0 0 0-.088.848c.088.11.312.26.672.446.554.292.905.524 1.056.698.23.272.344.602.344.991 0 .433-.153.805-.459 1.116-.307.311-.731.466-1.275.466-.547 0-.975-.157-1.286-.471-.311-.315-.467-.758-.467-1.331v-.099zm7.425 0l.732-.053c-.004.425.09.743.279.952.191.21.449.315.777.315.298 0 .534-.075.707-.224a.72.72 0 0 0 .261-.572.703.703 0 0 0-.163-.452c-.111-.134-.352-.298-.722-.491-.426-.222-.706-.394-.842-.513a1.23 1.23 0 0 1-.317-.438 1.428 1.428 0 0 1-.113-.577c0-.435.141-.794.423-1.075.282-.282.651-.422 1.109-.422.508 0 .909.144 1.204.434.295.29.449.695.462 1.216l-.718.058c-.009-.327-.103-.579-.282-.755-.179-.178-.418-.266-.719-.266a.83.83 0 0 0-.575.199.603.603 0 0 0-.221.459c0 .151.044.28.132.389.089.11.313.26.673.446.554.292.906.524 1.056.698.23.272.344.602.344.991 0 .433-.153.805-.459 1.116-.306.311-.731.466-1.275.466-.547 0-.975-.157-1.286-.471-.311-.315-.467-.758-.467-1.331v-.099zm7.728.01l.712.089c-.118.507-.391.949-.82 1.325-.357.318-.755.477-1.194.477a1.51 1.51 0 0 1-.849-.252c-.256-.17-.459-.422-.609-.757-.151-.336-.227-.736-.227-1.201 0-.612.116-1.184.347-1.714.231-.53.513-.917.847-1.162a1.798 1.798 0 0 1 1.086-.365c.494 0 .897.188 1.21.564.313.377.469.909.469 1.597 0 .255-.018.517-.054.785h-3.153a3.282 3.282 0 0 0-.015.28c0 .491.093.864.28 1.117.187.254.411.381.673.381.249 0 .494-.099.734-.299.241-.2.429-.488.563-.865zm-2.117-1.291h2.402v-.182c0-.465-.092-.814-.275-1.046a.86.86 0 0 0-.702-.349c-.309 0-.591.131-.848.393s-.45.657-.577 1.184zm6.951 2.416c-.268.281-.52.48-.756.594a1.611 1.611 0 0 1-.717.172c-.38 0-.695-.136-.945-.407-.251-.272-.376-.642-.376-1.111 0-.333.072-.625.216-.874.144-.248.346-.439.607-.572.26-.133.632-.21 1.117-.233.409-.023.69-.048.842-.074.152-.026.283-.065.391-.118.059-.248.088-.451.088-.609a.655.655 0 0 0-.238-.528c-.159-.132-.389-.199-.69-.199-.606 0-.999.318-1.179.953l-.737-.079c.311-1.067.965-1.6 1.96-1.6.491 0 .881.128 1.169.385.288.257.432.58.432.97 0 .275-.032.598-.098.967l-.236 1.297a5.885 5.885 0 0 0-.113 1.002c0 .18.028.417.084.712h-.732a3.545 3.545 0 0 1-.089-.648zm.271-1.994c-.18.085-.485.15-.914.196-.438.046-.74.105-.904.177a.846.846 0 0 0-.383.329.948.948 0 0 0-.137.511c0 .265.073.475.221.629a.78.78 0 0 0 .589.231c.233 0 .457-.073.673-.217.216-.144.392-.352.528-.623.136-.272.245-.683.327-1.233zm1.937 2.642l.893-5.216h.644l-.182 1.066c.429-.789.86-1.183 1.292-1.183.147 0 .327.064.541.191l-.301.825a.604.604 0 0 0-.402-.167c-.269 0-.536.176-.803.528-.267.352-.475.973-.626 1.864l-.364 2.092h-.692zm6.195-1.9l.732.093c-.183.652-.446 1.135-.786 1.451-.341.316-.72.474-1.139.474-.452 0-.826-.178-1.123-.535-.296-.357-.444-.875-.444-1.553 0-.664.108-1.268.326-1.811.218-.544.494-.938.826-1.184a1.813 1.813 0 0 1 1.107-.368c.439 0 .798.153 1.075.461.279.308.417.731.413 1.267l-.717.059c0-.34-.079-.602-.238-.783a.751.751 0 0 0-.587-.273 1.07 1.07 0 0 0-.7.258c-.208.172-.388.49-.54.953a4.92 4.92 0 0 0-.228 1.54c0 .419.083.737.248.955.165.218.362.327.591.327.236 0 .462-.11.678-.33.217-.219.385-.553.506-1.001zm1.681 1.9l1.234-7.2h.731l-.476 2.765c.285-.337.544-.571.778-.702.214-.125.457-.193.705-.196.337 0 .608.109.811.328.203.22.304.521.304.904 0 .19-.042.531-.128 1.022l-.525 3.079h-.732l.545-3.158c.079-.455.118-.743.118-.864a.574.574 0 0 0-.155-.422.543.543 0 0 0-.409-.158c-.253 0-.495.078-.728.231-.232.154-.42.378-.564.67-.145.294-.275.781-.393 1.462l-.388 2.239h-.728zm10.77-.648c-.268.281-.52.48-.756.594a1.621 1.621 0 0 1-.717.172c-.38 0-.695-.136-.945-.407-.251-.272-.376-.642-.376-1.111 0-.333.072-.625.216-.874.144-.248.346-.439.607-.572.26-.133.632-.21 1.117-.233.409-.023.69-.048.842-.074.152-.026.283-.065.391-.118.059-.248.088-.451.088-.609a.657.657 0 0 0-.238-.528c-.159-.132-.389-.199-.69-.199-.606 0-.999.318-1.179.953l-.737-.079c.311-1.067.965-1.6 1.96-1.6.491 0 .881.128 1.169.385.288.257.432.58.432.97 0 .275-.033.598-.098.967l-.236 1.297a5.885 5.885 0 0 0-.113 1.002c0 .18.028.417.084.712h-.732a3.545 3.545 0 0 1-.089-.648zm.271-1.994c-.18.085-.485.15-.914.196-.439.046-.74.105-.904.177a.846.846 0 0 0-.383.329.948.948 0 0 0-.137.511c0 .265.073.475.221.629a.78.78 0 0 0 .589.231c.233 0 .457-.073.673-.217.216-.144.392-.352.528-.623.136-.272.244-.683.327-1.233zm1.937 2.642l.893-5.216h.658l-.152.909c.308-.387.588-.654.84-.803.252-.149.496-.223.732-.223.331 0 .598.111.803.333.205.223.307.539.307.948 0 .184-.036.482-.108.894l-.54 3.158h-.732l.57-3.305a4.66 4.66 0 0 0 .083-.717c0-.181-.051-.322-.154-.425a.57.57 0 0 0-.421-.155c-.366 0-.696.162-.989.486-.293.324-.508.888-.646 1.69l-.418 2.426h-.726zm7.968-.756c-.412.583-.848.874-1.307.874-.392 0-.726-.178-1.001-.535-.275-.357-.413-.892-.413-1.606 0-.639.11-1.224.329-1.756.219-.532.49-.924.81-1.176.322-.253.641-.378.959-.378.527 0 .925.312 1.193.938l.481-2.805h.727l-1.233 7.2h-.673l.128-.756zm-1.994-1.429l-.005.211c0 .432.1.785.3 1.061a.714.714 0 0 0 .609.319c.327 0 .627-.209.898-.628.357-.561.536-1.248.536-2.064 0-.419-.092-.743-.275-.972-.184-.229-.401-.344-.654-.344-.245 0-.476.11-.692.329-.216.22-.39.549-.521.987-.131.439-.196.806-.196 1.101zm6.944 2.185l1.232-7.2h.732l-1.232 7.2h-.732zm3.425-6.193l.172-1.007h.727l-.172 1.007h-.727zm-1.061 6.193l.894-5.216h.727l-.894 5.216h-.727zm2.404-1.783l.731-.053c-.002.425.091.743.281.952.189.21.448.315.775.315.299 0 .534-.075.708-.224a.722.722 0 0 0 .26-.572.702.702 0 0 0-.162-.452c-.111-.134-.352-.298-.722-.491-.426-.222-.706-.394-.842-.513a1.23 1.23 0 0 1-.317-.438 1.428 1.428 0 0 1-.113-.577c0-.435.141-.794.422-1.075.282-.282.652-.422 1.11-.422.508 0 .909.144 1.204.434.294.29.448.695.461 1.216l-.717.058c-.009-.327-.104-.579-.282-.755-.178-.178-.419-.266-.72-.266a.828.828 0 0 0-.574.199.604.604 0 0 0-.088.848c.088.11.312.26.672.446.553.292.905.524 1.056.698.23.272.344.602.344.991 0 .433-.153.805-.459 1.116-.307.311-.731.466-1.275.466-.547 0-.975-.157-1.287-.471-.311-.315-.466-.758-.466-1.331v-.099zm6.294 1.061l-.128.727a1.641 1.641 0 0 1-.506.084c-.272 0-.487-.073-.646-.217a.742.742 0 0 1-.238-.579c0-.115.036-.378.108-.791l.515-3.03h-.574l.118-.688h.574l.221-1.281.835-.614-.324 1.895h.712l-.117.688h-.713l-.496 2.883c-.062.37-.093.588-.093.653 0 .115.026.198.079.25.052.053.132.079.24.079.16 0 .305-.02.433-.059zm2.123-5.471l.172-1.007h.727l-.172 1.007h-.727zm-1.061 6.193l.894-5.216h.727l-.894 5.216h-.727zm2.365 0l.893-5.216h.658l-.152.909c.308-.387.588-.654.84-.803.252-.149.496-.223.732-.223.331 0 .598.111.803.333.205.223.307.539.307.948 0 .184-.036.482-.108.894l-.54 3.158h-.732l.569-3.305c.056-.324.084-.563.084-.717a.574.574 0 0 0-.155-.425.568.568 0 0 0-.42-.155c-.366 0-.696.162-.989.486-.294.324-.509.888-.646 1.69l-.418 2.426h-.726zm5.05.472l.737.084v.117c0 .226.064.397.192.511.127.115.327.172.599.172.422 0 .732-.129.928-.388.137-.19.262-.606.374-1.248l.073-.422c-.38.468-.782.702-1.208.702-.423 0-.782-.19-1.078-.572-.297-.382-.445-.934-.445-1.658 0-.569.114-1.105.342-1.608.227-.502.502-.877.825-1.125.323-.247.647-.37.975-.37.56 0 .992.324 1.296.972l.147-.855h.664l-.86 5.035c-.131.759-.329 1.306-.594 1.64-.334.419-.787.629-1.36.629-.544 0-.951-.121-1.221-.362-.27-.24-.405-.57-.405-.989 0-.079.006-.167.019-.265zm.909-2.78c0 .389.042.694.125.914.084.219.198.385.344.498a.746.746 0 0 0 .464.169c.22 0 .442-.091.668-.272.226-.182.421-.485.585-.909.162-.415.245-.858.245-1.304 0-.438-.099-.782-.297-1.031-.198-.249-.436-.373-.715-.373-.226 0-.449.1-.67.301-.221.202-.401.51-.54.924-.14.414-.209.775-.209 1.083z" fill="#fff" fill-rule="nonzero"/>
          <g id="Right-side-mirror" serif:id="Right side mirror">
            <path d="M419.351 92.697l.077.002.076.003.077.003.076.005.152.012.076.008.075.008.075.01.075.01.075.012.074.011.148.027.073.015.073.016.073.017.073.017.144.038.071.02.072.021.071.021.07.023.07.024.07.024.07.025.069.026.069.027.067.027.068.029.068.029.067.03.066.03.067.032.066.033.065.033.065.034.065.034.064.035.063.037.064.037.062.037.063.039.061.039.062.04.06.04.06.041.06.042.059.043.059.043.057.044.058.045.057.045.057.046.056.047.11.095.054.049.054.049.053.05.104.102.051.051.051.053.05.053.049.054.049.054.049.055.047.056.047.056.046.057.046.057.045.057.044.059.043.059.043.06.042.059.041.061.041.061.04.062.04.062.038.063.038.064.037.063.037.064.035.065.035.065.034.067.034.066.032.066.031.067.032.068.03.069.029.068.029.069.027.07.027.069.026.071.026.071.047.143.023.072.022.072.021.073.02.073.019.074.018.074.017.074.017.075.03.151.014.075.013.076.011.077.011.077.01.077.009.078.008.077.007.076 2.804 33.416.006.075.004.079.005.077.003.078.002.078.001.155-.001.076-.001.077-.004.077-.003.076-.005.077-.005.075-.007.076-.008.075-.008.077-.01.074-.01.075-.011.075-.012.074-.013.074-.014.074-.015.073-.016.073-.017.073-.017.073-.018.072-.02.072-.02.072-.021.07-.021.072-.024.07-.023.071-.024.069-.025.069-.026.07-.027.069-.027.068-.029.068-.029.067-.03.067-.03.067-.032.066-.032.066-.034.066-.034.065-.034.064-.036.064-.036.063-.036.063-.038.064-.038.061-.04.062-.04.061-.04.061-.041.06-.042.06-.042.059-.044.059-.044.058-.044.058-.046.057-.046.056-.047.056-.047.055-.048.055-.049.054-.049.054-.05.053-.051.053-.051.051-.051.051-.053.051-.053.05-.054.05-.054.048-.055.048-.056.048-.056.047-.056.046-.058.045-.057.045-.059.044-.059.044-.059.043-.061.042-.06.042-.061.041-.062.04-.062.039-.063.038-.063.038-.064.038-.064.036-.065.036-.065.034-.066.034-.067.033-.066.033-.067.032-.068.03-.068.031-.069.029-.069.029-.069.028-.07.026-.071.027-.07.025-.072.024-.072.023-.072.023-.072.022-.073.021-.073.02-.074.019-.074.018-.075.018-.074.016-.075.016-.075.014-.076.014-.076.013-.077.012-.077.011-.077.009-.077.01-.078.007-.076.008-10.654.893-.076.006-.078.005-.078.004-.077.003-.078.002-.078.001h-.154l-.077-.002-.076-.003-.076-.004-.076-.004-.077-.006-.076-.007-.075-.008-.075-.008-.076-.009-.074-.01-.075-.012-.074-.012-.075-.013-.073-.014-.074-.015-.073-.015-.073-.017-.072-.018-.072-.018-.072-.019-.072-.021-.071-.021-.071-.021-.071-.023-.07-.024-.07-.023-.069-.025-.069-.027-.069-.026-.068-.028-.068-.028-.068-.029-.067-.031-.066-.03-.066-.032-.066-.032-.066-.034-.065-.034-.064-.033-.065-.036-.063-.036-.063-.037-.063-.038-.062-.038-.062-.039-.061-.04-.06-.04-.061-.042-.059-.042-.059-.042-.059-.044-.058-.043-.058-.045-.056-.046-.057-.045-.056-.047-.056-.048-.054-.048-.054-.048-.054-.05-.053-.05-.053-.05-.052-.051-.051-.052-.051-.053-.05-.053-.049-.053-.049-.055-.048-.055-.047-.055-.047-.056-.046-.057-.046-.057-.045-.058-.045-.059-.043-.058-.042-.06-.042-.06-.042-.06-.041-.062-.04-.062-.039-.062-.039-.062-.038-.064-.037-.064-.036-.064-.035-.065-.036-.065-.034-.066-.033-.066-.032-.066-.032-.068-.031-.068-.03-.067-.03-.07-.028-.068-.028-.07-.027-.07-.026-.071-.025-.07-.025-.071-.023-.072-.023-.073-.022-.072-.021-.072-.019-.074-.019-.074-.019-.074-.017-.074-.017-.075-.015-.075-.014-.075-.015-.076-.012-.076-.012-.077-.011-.076-.01-.078-.009-.077-.008-.078-.006-.076-2.805-33.415-.005-.076-.005-.078-.004-.078-.003-.078-.002-.077-.002-.078v-.077l.001-.077.002-.076.003-.077.004-.077.005-.076.005-.076.007-.075.007-.077.009-.074.009-.076.01-.075.012-.074.012-.075.013-.074.014-.073.014-.073.017-.074.016-.072.018-.073.018-.073.019-.071.02-.072.021-.071.022-.072.023-.07.023-.07.024-.07.025-.07.027-.069.026-.068.028-.068.029-.068.028-.067.031-.068.03-.067.032-.066.032-.066.033-.066.034-.064.034-.064.036-.064.036-.064.037-.063.038-.063.038-.062.039-.062.04-.061.041-.061.04-.06.042-.059.043-.059.043-.059.044-.058.045-.058.045-.057.047-.056.046-.057.047-.055.049-.054.048-.054.049-.054.051-.054.05-.052.051-.052.052-.051.052-.05.053-.051.055-.049.053-.049.055-.048.056-.047.056-.047.057-.047.057-.046.058-.044.058-.044.059-.044.06-.043.06-.042.061-.041.061-.041.062-.04.061-.039.063-.039.064-.038.064-.037.063-.037.066-.035.065-.035.065-.033.067-.034.067-.032.067-.032.067-.032.069-.029.069-.03.069-.028.069-.028.07-.027.07-.026.071-.025.072-.025.071-.023.072-.023.073-.021.072-.022.074-.02.074-.019.073-.018.075-.017.074-.017.076-.015.075-.015.076-.014.076-.013.076-.011.077-.011.077-.01.078-.009.077-.008.076-.007 10.655-.894.076-.006.077-.005.078-.004.078-.003.077-.002.078-.001h.077l.077.001zm-.148.733h-.069l-.068.002-.068.003-.069.004-.068.004-.069.005-10.65.894-.069.006-.069.007-.068.008-.067.009-.068.009-.067.011-.067.011-.067.012-.066.013-.066.014-.066.014-.065.016-.065.015-.065.017-.064.018-.064.018-.064.019-.063.021-.063.02-.063.021-.062.022-.062.023-.061.024-.061.024-.062.025-.06.026-.06.026-.059.028-.059.027-.059.029-.058.03-.058.03-.057.03-.057.032-.057.031-.056.033-.055.033-.056.034-.054.035-.054.035-.054.036-.054.036-.053.037-.052.038-.052.038-.051.039-.05.04-.051.04-.05.04-.05.041-.048.042-.049.043-.047.042-.048.044-.046.044-.046.045-.046.045-.045.045-.045.046-.043.047-.044.048-.043.047-.042.048-.042.049-.041.049-.04.05-.04.05-.04.051-.039.051-.038.052-.037.052-.037.052-.036.053-.036.054-.035.053-.034.055-.034.054-.033.056-.032.055-.032.056-.031.057-.031.056-.03.057-.029.058-.028.057-.028.059-.027.058-.026.059-.026.059-.024.06-.025.061-.024.06-.022.06-.022.062-.022.061-.021.062-.019.061-.019.063-.019.062-.017.063-.017.064-.017.063-.015.064-.014.063-.014.065-.014.064-.012.066-.011.064-.011.065-.01.066-.009.066-.008.066-.007.066-.007.066-.006.067-.005.067-.004.067-.003.067-.003.067-.001.068-.001.068v.068l.001.068.002.068.002.068.004.069.004.069.006.069 2.803 33.411.013.137.017.136.01.068.01.067.011.067.012.067.013.066.014.066.014.066.015.065.017.065.016.065.018.064.018.065.02.063.019.064.021.062.043.125.023.062.024.062.025.06.025.061.026.061.026.06.027.059.028.059.029.059.029.058.03.058.03.057.031.057.032.056.033.057.033.056.034.055.035.054.035.054.072.108.038.052.037.053.077.103.04.05.04.051.081.099.042.049.042.048.087.096.044.046.045.046.045.046.046.045.046.045.094.087.047.042.048.043.049.042.099.081.051.04.05.04.051.038.051.038.053.038.052.036.053.037.107.071.055.034.055.034.055.033.111.064.056.031.057.031.058.029.057.03.057.027.059.028.059.027.058.027.06.026.119.049.061.023.06.023.062.022.061.021.061.021.063.02.062.019.063.018.062.018.064.017.063.016.064.016.064.014.064.014.064.013.066.013.065.011.13.021.066.008.066.009.067.007.065.007.068.006.066.005.067.004.068.003.067.003.067.001.068.001h.068l.068-.001.068-.002.069-.003.068-.003.069-.005.069-.005 10.65-.893.068-.007.069-.007.068-.008.068-.008.067-.01.068-.01.067-.011.066-.013.067-.012.066-.014.066-.014.065-.016.065-.016.065-.017.064-.017.064-.019.064-.019.063-.02.063-.02.063-.022.062-.022.062-.023.061-.024.061-.024.061-.025.06-.026.06-.026.06-.028.059-.027.058-.029.059-.029.057-.03.058-.031.056-.031.057-.032.056-.032.056-.034.055-.034.055-.034.054-.036.054-.035.053-.037.053-.037.052-.037.052-.039.051-.039.051-.039.05-.04.051-.041.049-.041.049-.042.048-.042.048-.043.047-.044.047-.043.046-.045.045-.045.046-.046.044-.046.044-.046.044-.048.042-.048.043-.048.041-.049.041-.049.041-.05.04-.05.039-.05.039-.051.038-.052.038-.052.036-.052.036-.053.036-.054.035-.054.035-.054.034-.055.032-.055.033-.056.032-.055.031-.057.03-.056.03-.058.029-.057.028-.058.028-.058.027-.059.026-.059.026-.059.025-.06.025-.06.023-.06.023-.061.022-.061.021-.062.021-.061.02-.062.019-.062.018-.063.018-.063.017-.063.016-.064.015-.063.015-.064.014-.064.013-.065.012-.065.011-.065.011-.065.01-.066.009-.066.009-.065.007-.067.007-.066.005-.066.006-.068.004-.067.003-.067.002-.067.002-.068.001-.067v-.068l-.001-.068-.003-.069-.002-.068-.004-.068-.004-.07-.005-.068-2.804-33.412-.006-.068-.007-.069-.008-.068-.009-.068-.009-.068-.01-.067-.012-.066-.012-.068-.012-.065-.014-.067-.015-.065-.015-.066-.016-.065-.017-.065-.018-.064-.018-.064-.019-.064-.02-.063-.021-.063-.021-.063-.022-.062-.023-.061-.023-.062-.025-.061-.025-.061-.026-.06-.026-.06-.027-.06-.028-.059-.029-.058-.029-.059-.03-.057-.03-.057-.032-.057-.032-.057-.033-.056-.033-.056-.034-.055-.034-.055-.035-.054-.036-.054-.037-.053-.037-.053-.038-.052-.038-.052-.039-.051-.039-.051-.04-.051-.041-.049-.041-.05-.042-.049-.042-.048-.043-.047-.044-.048-.044-.047-.045-.046-.044-.045-.046-.045-.046-.045-.047-.044-.047-.043-.048-.044-.048-.042-.048-.041-.05-.041-.05-.041-.05-.04-.051-.039-.051-.039-.051-.038-.053-.037-.052-.037-.053-.036-.053-.036-.054-.035-.055-.035-.054-.033-.055-.033-.056-.033-.055-.031-.057-.031-.057-.031-.057-.03-.057-.029-.058-.029-.059-.027-.058-.027-.059-.026-.059-.026-.06-.025-.06-.024-.06-.024-.061-.023-.061-.022-.062-.021-.061-.021-.062-.019-.063-.019-.062-.019-.063-.018-.063-.016-.064-.017-.063-.015-.064-.015-.065-.014-.064-.013-.065-.012-.065-.012-.065-.01-.066-.01-.065-.009-.067-.009-.066-.007-.066-.006-.067-.006-.066-.005-.068-.004-.067-.004-.067-.002-.068-.002h-.135z"/>
            <path d="M403.264 100.114c-.244-2.921 1.957-5.525 4.878-5.772l10.65-.894c2.921-.243 5.525 1.958 5.771 4.878l2.804 33.412c.244 2.921-1.958 5.525-4.878 5.772l-10.65.893a5.346 5.346 0 0 1-5.772-4.878l-2.803-33.411z" fill="#3c3c3c"/>
            <path d="M396.989 123.778a1.021 1.021 0 0 1 .423-1.373l15.27-8.086a1.023 1.023 0 0 1 1.374.422l.95 1.797a1.02 1.02 0 0 1-.422 1.373l-15.27 8.085a1.022 1.022 0 0 1-1.374-.422l-.951-1.796z" fill="#0e0e0e"/>
          </g>
          <g id="Left-side-mirror" serif:id="Left side mirror">
            <path d="M149.281 92.696l.078.001.077.002.077.003.078.004.078.005.076.006 10.654.894.076.007.078.008.077.009.077.01.077.011.077.011.076.013.076.014.075.015.075.015.074.017.075.017.074.018.147.039.073.022.072.021.073.023.071.023.072.025.07.025.071.026.07.027.069.028.069.028.069.03.068.029.068.032.067.032.067.032.066.034.066.033.065.035.065.035.064.037.064.037.063.038.063.039.062.039.062.04.061.041.061.041.06.042.06.043.058.044.059.044.057.044.058.047.056.046.057.047.055.047.055.048.054.049.054.049.053.051.053.05.103.103.05.052.05.054.049.053.049.054.048.055.094.112.046.056.046.057.045.058.043.058.044.059.042.059.083.119.041.061.039.061.04.062.038.062.038.063.037.063.036.064.035.063.034.065.034.065.034.065.032.066.032.067.03.066.03.068.029.067.029.068.028.068.026.069.026.068.025.07.024.07.024.07.023.071.021.071.021.071.021.071.019.072.018.073.018.073.016.072.016.073.015.074.014.073.013.074.012.075.012.075.01.074.009.075.008.075.008.077.007.075.005.076.005.076.004.077.003.077.002.076v.154l-.001.078-.002.077-.003.078-.004.078-.005.078-.006.076-2.804 33.415-.007.076-.008.078-.009.077-.009.078-.011.076-.012.077-.013.076-.014.076-.014.075-.016.075-.016.075-.018.074-.018.074-.019.074-.02.074-.021.072-.022.073-.022.072-.024.071-.024.072-.026.071-.026.07-.026.07-.028.069-.028.069-.03.069-.03.068-.031.068-.032.067-.032.067-.034.066-.034.066-.035.065-.035.065-.037.064-.037.065-.038.063-.038.062-.04.062-.04.062-.041.062-.041.06-.042.06-.043.06-.043.059-.044.058-.045.058-.046.057-.046.056-.047.057-.047.055-.049.055-.048.055-.05.053-.05.053-.051.053-.05.052-.053.051-.052.05-.053.05-.054.05-.054.048-.055.048-.055.048-.056.046-.057.046-.057.046-.057.045-.058.044-.059.043-.059.042-.06.042-.06.042-.06.04-.062.04-.061.039-.062.038-.063.038-.064.037-.063.036-.064.036-.064.033-.065.034-.066.034-.066.032-.066.032-.066.03-.068.031-.067.029-.068.028-.068.028-.069.026-.069.027-.07.025-.069.023-.07.024-.071.023-.071.021-.072.021-.071.021-.072.019-.072.018-.073.018-.073.017-.073.015-.073.015-.074.014-.074.013-.075.012-.074.012-.074.01-.076.009-.075.008-.076.008-.076.007-.076.006-.076.004-.077.004-.076.003-.076.002h-.155l-.078-.001-.077-.002-.078-.003-.078-.004-.078-.005-.075-.006-10.655-.893-.076-.008-.077-.007-.077-.01-.077-.009-.078-.011-.076-.012-.076-.013-.076-.014-.075-.014-.075-.016-.075-.016-.074-.018-.074-.018-.074-.019-.073-.02-.073-.021-.072-.022-.073-.023-.071-.023-.072-.024-.07-.025-.071-.027-.07-.026-.069-.028-.069-.029-.069-.029-.068-.031-.068-.03-.067-.032-.067-.033-.066-.033-.066-.034-.065-.034-.066-.036-.063-.036-.064-.038-.063-.038-.064-.038-.061-.039-.062-.04-.061-.041-.061-.042-.06-.042-.06-.043-.058-.044-.059-.044-.058-.045-.057-.045-.057-.046-.056-.047-.056-.048-.054-.048-.054-.049-.055-.049-.053-.05-.052-.051-.051-.051-.052-.051-.05-.053-.051-.053-.048-.054-.049-.054-.049-.055-.047-.055-.046-.056-.047-.056-.045-.057-.045-.058-.043-.058-.044-.059-.043-.059-.042-.06-.04-.06-.041-.061-.04-.061-.039-.062-.038-.061-.038-.063-.037-.063-.036-.064-.035-.064-.035-.064-.034-.065-.033-.066-.032-.066-.032-.066-.03-.067-.03-.067-.029-.067-.029-.068-.028-.069-.026-.068-.026-.07-.025-.069-.025-.07-.023-.07-.023-.07-.022-.072-.021-.07-.02-.072-.019-.072-.018-.072-.018-.073-.016-.073-.016-.073-.015-.073-.014-.074-.013-.074-.012-.074-.012-.075-.01-.075-.009-.075-.009-.075-.007-.076-.007-.075-.005-.076-.005-.077-.004-.076-.003-.077-.002-.077-.001-.077v-.077l.002-.077.002-.078.003-.078.004-.077.005-.078.006-.076 2.804-33.416.007-.076.008-.077.008-.078.01-.077.011-.077.012-.077.013-.076.014-.075.014-.076.015-.075.017-.075.017-.074.019-.074.019-.074.02-.073.021-.073.021-.072.023-.072.023-.072.025-.072.026-.07.025-.07.027-.07.028-.07.028-.069.03-.069.03-.068.031-.068.032-.067.032-.067.033-.066.034-.065.035-.065.036-.066.037-.064.036-.064.038-.063.039-.063.04-.062.04-.062.04-.061.042-.061.042-.059.043-.06.043-.059.044-.059.045-.057.046-.057.046-.057.047-.056.047-.056.048-.055.049-.054.049-.054.05-.053.051-.052.051-.052.053-.051.052-.051.053-.05.054-.049.054-.049.055-.048.055-.047.056-.047.057-.046.056-.045.058-.045.058-.044.059-.044.059-.042.059-.042.061-.041.06-.04.061-.04.062-.039.063-.039.062-.037.063-.037.064-.037.064-.035.065-.034.064-.034.065-.033.067-.033.066-.031.066-.031.067-.03.068-.029.068-.029.068-.027.069-.027.069-.026.069-.025.07-.024.07-.024.071-.023.071-.021.072-.021.071-.02.072-.019.072-.019.072-.017.073-.017.074-.016.073-.015.074-.013.074-.014.074-.011.075-.012.074-.01.076-.01.075-.008.076-.008.076-.006.076-.006.076-.005.076-.003.077-.003.076-.002.078-.001h.077zm-.142.734l-.067.002-.067.002-.068.004-.067.004-.066.005-.067.006-.066.006-.067.007-.066.009-.066.009-.065.01-.065.01-.065.012-.065.012-.064.013-.065.014-.064.015-.064.015-.063.017-.064.016-.062.018-.063.019-.062.019-.062.019-.062.021-.061.021-.061.022-.061.023-.06.024-.06.024-.06.025-.059.026-.059.026-.059.027-.058.027-.058.029-.057.029-.057.03-.058.031-.056.031-.056.031-.055.033-.055.033-.055.033-.055.035-.053.035-.053.036-.053.036-.053.037-.052.037-.051.038-.052.039-.05.039-.051.04-.049.041-.05.041-.049.041-.048.042-.047.044-.047.043-.047.044-.046.045-.046.045-.045.045-.044.046-.045.047-.043.048-.043.047-.043.048-.041.049-.041.05-.041.049-.04.051-.04.051-.038.051-.039.052-.037.052-.038.053-.036.053-.036.054-.035.054-.035.055-.034.055-.033.056-.033.056-.032.057-.031.057-.03.057-.03.057-.029.059-.029.058-.028.059-.027.06-.026.06-.026.06-.025.061-.025.061-.024.062-.022.061-.022.062-.022.063-.021.063-.019.063-.019.064-.019.064-.017.064-.017.065-.016.065-.015.066-.015.065-.014.067-.013.065-.011.068-.012.066-.01.067-.01.068-.008.068-.009.068-.006.069-.007.068-2.803 33.412-.005.068-.005.07-.004.068-.002.068-.002.069-.001.068v.068l.001.067.004.135.003.067.004.067.006.068.005.066.007.066.007.067.008.065.009.066.01.066.022.13.013.065.013.065.014.064.015.064.014.063.017.064.017.063.017.063.019.063.019.062.02.062.021.061.021.062.022.061.022.061.024.06.025.06.05.119.026.059.028.059.027.058.029.058.029.057.029.058.031.056.031.057.032.055.033.056.032.055.034.055.035.054.034.054.036.054.036.053.037.052.037.052.039.052.039.051.039.05.04.05.04.05.041.049.042.049.042.048.043.048.044.048.088.092.045.046.046.045.046.045.094.087.048.043.048.042.049.042.049.041.05.041.051.04.051.039.05.039.053.039.104.074.054.037.054.035.054.036.055.034.055.034.056.034.055.032.057.032.057.031.058.031.057.03.059.029.058.029.059.027.059.028.061.026.059.026.062.025.061.024.061.024.062.023.125.044.126.04.064.019.064.019.064.017.065.017.065.016.065.016.066.014.066.014.066.012.067.013.067.011.135.02.067.008.069.008.068.007.069.007 10.65.893.069.005.068.005.069.003.068.003.068.002.069.001h.068l.067-.001.068-.001.067-.003.067-.003.068-.004.066-.005.067-.006.066-.007.067-.007.066-.009.066-.008.065-.011.065-.01.065-.011.065-.013.064-.013.065-.014.064-.014.063-.016.064-.016.063-.017.063-.018.062-.018.063-.019.062-.02.061-.021.062-.021.061-.022.061-.023.06-.023.06-.025.06-.024.059-.026.059-.027.059-.027.058-.028.058-.027.057-.03.057-.029.057-.031.057-.031.055-.032.056-.032.055-.033.055-.034.054-.034.054-.036.053-.035.053-.037.053-.036.052-.038.051-.038.052-.038.05-.04.05-.04.05-.041.05-.04.048-.042.048-.043.048-.042.047-.044.047-.043.046-.045.046-.045.045-.046.044-.046.044-.046.044-.048.043-.048.042-.048.042-.049.041-.049.041-.05.04-.051.04-.05.038-.052.039-.051.037-.053.038-.052.036-.054.036-.054.035-.054.035-.054.034-.055.033-.056.032-.057.032-.056.032-.057.03-.057.03-.058.029-.058.029-.059.028-.059.027-.059.026-.06.026-.061.025-.061.025-.06.023-.062.023-.062.022-.062.022-.063.02-.062.02-.064.019-.063.019-.065.017-.064.017-.065.016-.065.015-.065.015-.066.014-.066.013-.066.011-.067.012-.067.01-.067.009-.068.009-.068.008-.068.007-.068.006-.069 2.804-33.411.005-.069.004-.069.004-.069.003-.068.002-.068.001-.068v-.068l-.001-.068-.002-.068-.002-.067-.003-.067-.004-.067-.006-.067-.005-.067-.007-.066-.007-.066-.009-.066-.008-.066-.011-.066-.01-.065-.012-.064-.012-.066-.013-.064-.014-.065-.015-.063-.015-.064-.016-.063-.017-.064-.018-.063-.018-.062-.019-.063-.02-.061-.021-.062-.021-.061-.022-.062-.023-.06-.023-.06-.025-.061-.025-.06-.025-.059-.026-.059-.028-.058-.028-.059-.028-.057-.029-.058-.029-.057-.031-.056-.031-.057-.032-.056-.033-.055-.032-.056-.034-.054-.035-.055-.035-.053-.036-.054-.036-.053-.036-.052-.038-.052-.038-.052-.039-.051-.039-.051-.04-.05-.041-.05-.04-.049-.042-.049-.043-.048-.042-.047-.044-.048-.044-.047-.044-.046-.046-.045-.045-.045-.046-.045-.047-.044-.047-.044-.048-.042-.048-.043-.049-.042-.049-.041-.05-.04-.051-.04-.051-.04-.051-.039-.052-.038-.052-.038-.052-.037-.054-.036-.054-.036-.054-.035-.055-.035-.055-.034-.056-.033-.056-.033-.056-.031-.057-.032-.058-.03-.057-.03-.059-.03-.058-.029-.059-.027-.06-.028-.06-.026-.06-.026-.061-.025-.061-.024-.061-.024-.062-.023-.062-.022-.063-.021-.063-.02-.063-.021-.064-.019-.064-.018-.064-.018-.065-.017-.065-.015-.065-.016-.066-.014-.066-.014-.066-.013-.067-.012-.067-.011-.067-.011-.068-.009-.068-.009-.068-.008-.068-.007-.069-.006-10.65-.894-.069-.005-.068-.004-.069-.004-.069-.003-.067-.002H149.139z"/>
            <path d="M165.214 100.114c.244-2.921-1.958-5.526-4.878-5.772l-10.65-.894c-2.921-.243-5.525 1.958-5.772 4.878l-2.803 33.412c-.244 2.921 1.958 5.525 4.878 5.772l10.65.893c2.921.244 5.525-1.957 5.771-4.878l2.804-33.411z" fill="#3c3c3c"/>
            <path d="M171.489 123.778a1.021 1.021 0 0 0-.424-1.373l-15.27-8.086a1.022 1.022 0 0 0-1.373.422l-.951 1.797c-.26.492-.07 1.112.423 1.373l15.27 8.085a1.015 1.015 0 0 0 1.373-.422l.952-1.796z" fill="#0e0e0e"/>
          </g>
        </g>
      </g>
      <g id="Nose">
        <path d="M136.817 214.814h26.509v58.959h-26.509v-58.959zm268.125 0h26.509v58.959h-26.509v-58.959z" fill="#4a0000"/>
        <path id="Tire-right" serif:id="Tire right" d="M431.451 234.769c0-5.797-4.707-10.504-10.504-10.504h-21.008c-5.797 0-10.504 4.707-10.504 10.504v78.007c0 5.797 4.707 10.504 10.504 10.504h21.008c5.797 0 10.504-4.707 10.504-10.504v-78.007z" fill="#181818"/>
        <clipPath id="_clip6">
          <path d="M431.451 234.769c0-5.797-4.707-10.504-10.504-10.504h-21.008c-5.797 0-10.504 4.707-10.504 10.504v78.007c0 5.797 4.707 10.504 10.504 10.504h21.008c5.797 0 10.504-4.707 10.504-10.504v-78.007z"/>
        </clipPath>
        <g clip-path="url(#_clip6)">
          <path d="M399.73 219.079h3.798v109.387h-3.798V219.079zm18.899 0h3.798v109.387h-3.798V219.079zm-11.224 0h7.281v109.387h-7.281V219.079z" fill="#212121"/>
        </g>
        <path id="Tire-left" serif:id="Tire left" d="M178.833 234.769c0-5.797-4.707-10.504-10.504-10.504h-21.008c-5.797 0-10.504 4.707-10.504 10.504v78.007c0 5.797 4.707 10.504 10.504 10.504h21.008c5.797 0 10.504-4.707 10.504-10.504v-78.007z" fill="#181818"/>
        <clipPath id="_clip7">
          <path d="M178.833 234.769c0-5.797-4.707-10.504-10.504-10.504h-21.008c-5.797 0-10.504 4.707-10.504 10.504v78.007c0 5.797 4.707 10.504 10.504 10.504h21.008c5.797 0 10.504-4.707 10.504-10.504v-78.007z"/>
        </clipPath>
        <g clip-path="url(#_clip7)">
          <path d="M147.111 219.079h3.799v109.387h-3.799V219.079zm18.9 0h3.798v109.387h-3.798V219.079zm-11.225 0h7.282v109.387h-7.282V219.079z" fill="#212121"/>
        </g>
        <path id="Nose1" serif:id="Nose" d="M405.257 185.293c0-14.356-11.655-26.01-26.011-26.01H189.023c-14.357 0-26.012 11.654-26.012 26.01v78.034h242.246v-78.034z" fill="#980000"/>
        <clipPath id="_clip8">
          <path d="M405.257 185.293c0-14.356-11.655-26.01-26.011-26.01H189.023c-14.357 0-26.012 11.654-26.012 26.01v78.034h242.246v-78.034z"/>
        </clipPath>
        <g clip-path="url(#_clip8)">
          <path fill="#620000" d="M177.639 155.297h213.832v5.945H177.639z"/>
        </g>
        <path id="Highlight" d="M393.052 190.009c0-13.489-10.951-24.44-24.44-24.44H198.944c-13.488 0-24.439 10.951-24.439 24.44v73.318h218.547v-73.318z" fill="#ac1414"/>
        <g id="Grills">
          <path d="M318.186 187.753c0-.909-1.785-3.953-2.694-3.953h-62.296c-.909 0-3.114 3.044-3.114 3.953v65.649c0 .903.743 1.647 1.647 1.647h64.81c.904 0 1.647-.744 1.647-1.647v-65.649z" fill="#b2b2b2"/>
          <path d="M316.51 185.21c0-.762-.626-1.388-1.388-1.388h-61.587c-.86 0-1.567.707-1.567 1.567v67.983h64.542V185.21z" fill="#d8d8d8"/>
          <path d="M284.239 178.562l32.271 6.648-32.271 5.087-32.271-4.908 32.271-6.827z" fill="#d8d8d8"/>
          <path d="M261.392 194.496a.681.681 0 0 0-.681-.681h-1.363a.681.681 0 0 0-.681.681v53.96c0 .376.306.681.681.681h1.363a.682.682 0 0 0 .681-.681v-53.96zm6.077 0a.681.681 0 0 0-.681-.681h-1.362a.68.68 0 0 0-.681.681v53.96c0 .376.305.681.681.681h1.362a.682.682 0 0 0 .681-.681v-53.96zm6.077 0a.681.681 0 0 0-.681-.681h-1.362a.68.68 0 0 0-.681.681v53.96c0 .376.305.681.681.681h1.362a.682.682 0 0 0 .681-.681v-53.96zm6.077 0a.68.68 0 0 0-.681-.681h-1.362a.68.68 0 0 0-.681.681v53.96c0 .376.305.681.681.681h1.362a.681.681 0 0 0 .681-.681v-53.96zm6.077 0a.68.68 0 0 0-.681-.681h-1.362a.68.68 0 0 0-.681.681v53.96c0 .376.305.681.681.681h1.362a.681.681 0 0 0 .681-.681v-53.96zm6.077 0a.68.68 0 0 0-.681-.681h-1.362a.68.68 0 0 0-.681.681v53.96c0 .376.305.681.681.681h1.362a.681.681 0 0 0 .681-.681v-53.96zm6.077 0a.68.68 0 0 0-.681-.681h-1.362a.68.68 0 0 0-.681.681v53.96c0 .376.305.681.681.681h1.362a.681.681 0 0 0 .681-.681v-53.96zm6.077 0a.68.68 0 0 0-.68-.681h-1.363a.68.68 0 0 0-.681.681v53.96c0 .376.305.681.681.681h1.363a.68.68 0 0 0 .68-.681v-53.96zm5.879 0a.68.68 0 0 0-.681-.681h-1.362a.68.68 0 0 0-.681.681v53.96c0 .376.305.681.681.681h1.362a.681.681 0 0 0 .681-.681v-53.96z" fill="#292929"/>
        </g>
        <g id="Bumber">
          <g id="Bumper-bar" serif:id="Bumper bar">
            <path id="Bumper-bar1" serif:id="Bumper bar" d="M354.295 228.725H213.967l-15.328 15.328v19.902h-6.286v-22.297h.209l-.209-.209 18.961-18.961v-.049h145.635v.049l18.961 18.961-.21.209h.21v22.297h-6.287v-19.902l-15.328-15.328z" fill="#b1b1b1"/>
            <path fill="#b1b1b1" d="M200.003 235.774h167.753v4.129H200.003z"/>
            <path fill="#cecece" d="M200.417 236.817h166.386v2.096H200.417z"/>
            <path d="M355.046 227.193H213.327l-16.053 16.053v20.709h-3.353v-21.899h.2l-.2-.199 17.956-17.956.24.24v-.301h144.138v.301l.241-.24 17.956 17.956-.2.199h.2v21.899h-3.353v-20.709l-16.053-16.053z" fill="#cecece"/>
          </g>
          <g id="Bumber1" serif:id="Bumber">
            <path id="Bumper" d="M428.413 258.336a1.304 1.304 0 0 0-1.297-1.296H142.409c-.711 0-1.296.585-1.296 1.296v23.497c0 .716.581 1.296 1.296 1.296h284.707c.711 0 1.296-.585 1.297-1.296v-23.497z" fill="#6e6e6e"/>
            <path fill="#525252" d="M147.609 266.155h272.385v8.665H147.609z"/>
          </g>
        </g>
        <g id="Turn-signal-right" serif:id="Turn signal right">
          <path fill="#5a5a5a" d="M415.232 205.363h7.754v3.143h-7.754z"/>
          <circle cx="418.668" cy="197.631" r="9.535" fill="#ffae31"/>
          <path d="M425.678 201.229c1.527-.695 1.599-3.823.162-6.981s-3.843-5.158-5.37-4.463c1.233.463 2.955 2.422 4.139 5.023 1.184 2.602 1.53 5.186 1.069 6.421z" fill="#ffc031"/>
        </g>
        <path id="Mud-guard-right" serif:id="Mud guard right" d="M433.127 208.703c0-.585-.481-1.065-1.065-1.066h-27.853v7.335h28.918v-6.269z" fill="#980000"/>
        <g id="Turn-signal-left" serif:id="Turn signal left">
          <path fill="#5a5a5a" d="M145.116 205.363h7.754v3.143h-7.754z"/>
          <circle cx="148.552" cy="197.631" r="9.535" fill="#ffae31"/>
          <path d="M155.563 201.229c1.526-.695 1.598-3.823.161-6.981s-3.843-5.158-5.369-4.463c1.233.463 2.954 2.422 4.138 5.023 1.184 2.602 1.53 5.186 1.07 6.421z" fill="#ffc031"/>
        </g>
        <path id="Mud-guard-left" serif:id="Mud guard left" d="M163.221 207.637h-27.835c-.598 0-1.083.486-1.083 1.084v6.251h28.918v-7.335z" fill="#980000"/>
        <g id="Headlight-right" serif:id="Headlight right">
          <circle cx="366.081" cy="186.64" r="17.487" fill="#bdbdbd"/>
          <circle cx="366.081" cy="186.64" r="15.108" fill="#e3e3e3"/>
          <path d="M378.923 189.638c2.034-2.006.632-7.065-3.203-11.375-3.835-4.311-8.697-6.292-10.926-4.506 2.276-.144 6.209 2.084 9.495 5.778 3.287 3.694 5.042 7.86 4.634 10.103z" fill="#f0f0f0"/>
        </g>
        <g id="Headlight-left" serif:id="Headlight left">
          <circle cx="202.397" cy="186.64" r="17.487" fill="#bdbdbd"/>
          <circle cx="202.397" cy="186.64" r="15.108" fill="#e3e3e3"/>
          <path d="M215.241 189.638c2.033-2.006.631-7.065-3.204-11.375-3.835-4.311-8.696-6.292-10.925-4.506 2.275-.144 6.208 2.084 9.495 5.778 3.286 3.694 5.041 7.86 4.634 10.103z" fill="#f0f0f0"/>
        </g>
      </g>
      <g id="Plate-number" serif:id="Plate number">
        <path d="M324.473 245.9a.837.837 0 0 0-.836-.836h-79.844a.836.836 0 0 0-.836.836v27.037c0 .461.374.836.836.836h79.844a.837.837 0 0 0 .836-.836V245.9z" fill="#e9c457"/>
        <path d="M321.706 245.949l.074.005.073.01.073.012.071.017.07.019.068.024.067.026.065.03.064.033.061.034.059.039.058.041.055.043.054.046.05.048.048.051.047.053.043.055.041.058.038.059.035.062.033.063.029.065.027.068.023.068.02.069.016.072.013.072.01.074.005.074.002.066v24.163l-.002.066-.005.074-.01.073-.013.073-.016.071-.02.07-.023.068-.027.067-.029.066-.032.063-.036.062-.038.059-.041.057-.043.055-.046.053-.049.051-.051.049-.053.046-.055.043-.058.041-.059.038-.061.035-.064.033-.065.03-.067.026-.068.023-.071.02-.07.016-.073.013-.073.01-.074.005-.066.002h-75.85l-.066-.002-.074-.005-.073-.01-.073-.013-.071-.016-.07-.02-.069-.023-.066-.026-.066-.03-.063-.033-.062-.035-.059-.038-.057-.041-.055-.043-.053-.046-.051-.049-.048-.051-.047-.053-.043-.055-.041-.057-.038-.06-.036-.061-.032-.063-.03-.066-.026-.067-.023-.068-.02-.07-.016-.071-.013-.073-.01-.073-.005-.075-.002-.065v-24.163l.002-.066.005-.074.01-.074.013-.072.016-.072.02-.069.023-.068.026-.068.03-.065.033-.063.035-.061.038-.06.041-.058.043-.055.047-.053.048-.051.05-.048.054-.046.055-.043.057-.041.059-.038.062-.035.063-.033.066-.03.066-.026.069-.024.07-.019.071-.017.073-.012.073-.01.074-.005.066-.002h75.85l.066.002zm-75.907.718l-.038.001-.038.003-.038.004-.036.007-.036.008-.036.01-.035.012-.034.014-.032.014-.033.017-.031.018-.03.02-.03.02-.028.023-.027.023-.026.025-.025.026-.023.027-.023.028-.021.03-.019.029-.018.032-.016.032-.015.033-.014.034-.011.035-.01.035-.009.036-.006.037-.005.037-.003.038-.001.039v24.145l.001.038.003.038.005.038.006.036.009.036.01.036.011.035.014.033.015.034.016.032.018.031.019.03.021.029.023.029.023.027.025.026.026.024.027.024.028.023.03.02.03.02.031.018.033.016.032.015.034.014.035.011.036.011.036.008.036.006.038.005.038.003.038.001h75.832l.038-.001.038-.003.037-.005.037-.006.036-.008.036-.011.035-.011.034-.014.032-.015.033-.016.031-.018.03-.02.03-.02.028-.023.027-.024.026-.024.025-.026.023-.027.022-.029.021-.029.019-.03.019-.031.016-.032.015-.034.014-.033.011-.035.01-.036.009-.036.006-.036.005-.038.003-.038v-24.222l-.003-.038-.005-.037-.006-.037-.009-.036-.01-.035-.011-.035-.014-.034-.015-.033-.016-.032-.019-.032-.019-.029-.021-.03-.022-.028-.023-.027-.025-.026-.026-.025-.027-.023-.028-.023-.03-.02-.03-.02-.031-.018-.033-.017-.032-.014-.034-.014-.035-.012-.036-.01-.036-.008-.037-.007-.037-.004-.038-.003-.038-.001h-75.832z"/>
        <path d="M260.25 264.616h-5.658v-10.395h1.209v9.341h4.449v1.054zm10.175 0h-1.268l-1.149-3.64h-3.411l-1.164 3.64h-1.252l3.396-10.395h1.451l3.397 10.395zm-2.763-4.693l-1.363-4.303-1.356 4.303h2.719zm10.697 4.693h-5.658v-10.395h1.208v9.341h4.45v1.054zm3.772-4.708h4.377v1.12h-4.377v-1.12zm12.362-.994c.707.206 1.256.557 1.647 1.053.39.496.585 1.076.585 1.739 0 .952-.315 1.709-.946 2.269s-1.409.84-2.332.84c-.968 0-1.762-.283-2.383-.847-.621-.565-.932-1.314-.932-2.248 0-.658.201-1.237.604-1.738.403-.501.965-.857 1.687-1.068-.575-.148-1.035-.431-1.381-.851a2.16 2.16 0 0 1-.52-1.411c0-.668.266-1.273.796-1.816.53-.543 1.23-.814 2.099-.814.86 0 1.571.27 2.133.811.563.539.844 1.146.844 1.819 0 .506-.177.971-.53 1.396a2.642 2.642 0 0 1-1.371.866zm-1.076-.502c.025 0 .143-.029.354-.088.211-.058.392-.131.541-.217.15-.086.289-.195.417-.328.13-.136.235-.295.309-.468a1.47 1.47 0 0 0 .118-.6c0-.472-.169-.863-.508-1.176a1.756 1.756 0 0 0-1.231-.467c-.466 0-.866.16-1.2.479a1.547 1.547 0 0 0-.501 1.164c0 .289.06.543.18.759.12.216.27.39.45.523.187.136.396.241.618.309.234.074.385.11.453.11zm0 1.032c-1.345.393-2.018 1.132-2.018 2.217 0 .634.204 1.141.611 1.522a2.04 2.04 0 0 0 1.437.571c.57 0 1.05-.188 1.44-.564.39-.375.586-.885.586-1.529 0-.486-.135-.921-.405-1.307-.271-.386-.82-.689-1.651-.91zm11.788 5.172h-5.717v-.877c1.449-1.616 2.389-2.699 2.821-3.248a8.201 8.201 0 0 0 1.054-1.732c.27-.604.405-1.206.405-1.805 0-.58-.175-1.036-.526-1.37-.351-.334-.844-.502-1.477-.502-.487 0-1.14.151-1.96.45l-.169-1.038a5.894 5.894 0 0 1 2.328-.472c.927 0 1.675.261 2.243.785.567.523.851 1.221.851 2.096 0 .623-.147 1.242-.439 1.856a8.907 8.907 0 0 1-1.123 1.768c-.457.565-1.346 1.576-2.667 3.035h4.376v1.054zm9.732-2.402h-1.282v2.402h-1.208v-2.402h-4.524v-.921l4.104-7.072h1.628v6.94h1.282v1.053zm-2.49-1.053v-5.747l-3.301 5.747h3.301z" fill="#100000" fill-rule="nonzero"/>
      </g>
    </g>
  </g>
</svg>
