<svg viewBox="0 0 368 717" xmlns="http://www.w3.org/2000/svg" fill-rule="evenodd" clip-rule="evenodd" stroke-linejoin="round" stroke-miterlimit="1.414">
  <g id="luxe">
    <path fill="#e9b10c" d="M354.356 0h13.273v715.529h-13.273z"/>
    <path fill="#ffd500" d="M0 0h355.967v717H0z"/>
    <path d="M44.294 707.272H1.611v-56.918h42.683v56.918zm265.767 0h-42.683v-56.918h42.683v56.918zm-44.294 0h-42.684v-56.918h42.684v56.918zm-44.295 0h-42.683v-56.918h42.683v56.918zm-44.294 0h-42.684v-56.918h42.684v56.918zm-44.295 0H90.2v-56.918h42.683v56.918zm-44.294 0H45.905v-56.918h42.684v56.918zm265.767 0h-42.684v-56.918h42.684v56.918zm0-58.951h-42.684v-56.918h42.684v56.918zm-44.295 0h-42.683v-56.918h42.683v56.918zm-44.294 0h-42.684v-56.918h42.684v56.918zm-44.295 0h-42.683v-56.918h42.683v56.918zm-44.294 0h-42.684v-56.918h42.684v56.918zm-44.295 0H90.2v-56.918h42.683v56.918zm-44.294 0H45.905v-56.918h42.684v56.918zm-44.295 0H1.611v-56.918h42.683v56.918zm132.884-58.951h-42.684v-56.918h42.684v56.918zm-132.884 0H1.611v-56.918h42.683v56.918zm44.295 0H45.905v-56.918h42.684v56.918zm44.294 0H90.2v-56.918h42.683v56.918zm88.589 0h-42.683v-56.918h42.683v56.918zm44.295 0h-42.684v-56.918h42.684v56.918zm44.294 0h-42.683v-56.918h42.683v56.918zm44.295 0h-42.684v-56.918h42.684v56.918zM44.294 530.419H1.611v-56.918h42.683v56.918zm44.295 0H45.905v-56.918h42.684v56.918zm44.294 0H90.2v-56.918h42.683v56.918zm44.295 0h-42.684v-56.918h42.684v56.918zm44.294 0h-42.683v-56.918h42.683v56.918zm44.295 0h-42.684v-56.918h42.684v56.918zm44.294 0h-42.683v-56.918h42.683v56.918zm44.295 0h-42.684v-56.918h42.684v56.918zM88.589 471.468H45.905V414.55h42.684v56.918zm44.294 0H90.2V414.55h42.683v56.918zm44.295 0h-42.684V414.55h42.684v56.918zm44.294 0h-42.683V414.55h42.683v56.918zm44.295 0h-42.684V414.55h42.684v56.918zm44.294 0h-42.683V414.55h42.683v56.918zm44.295 0h-42.684V414.55h42.684v56.918zm-310.062 0H1.611V414.55h42.683v56.918zm44.295-58.951H45.905v-56.918h42.684v56.918zm44.294 0H90.2v-56.918h42.683v56.918zm44.295 0h-42.684v-56.918h42.684v56.918zm44.294 0h-42.683v-56.918h42.683v56.918zm44.295 0h-42.684v-56.918h42.684v56.918zm44.294 0h-42.683v-56.918h42.683v56.918zm44.295 0h-42.684v-56.918h42.684v56.918zm-310.062 0H1.611v-56.918h42.683v56.918zm0-58.95H1.611v-56.918h42.683v56.918zm310.062 0h-42.684v-56.918h42.684v56.918zm-44.295 0h-42.683v-56.918h42.683v56.918zm-44.294 0h-42.684v-56.918h42.684v56.918zm-44.295 0h-42.683v-56.918h42.683v56.918zm-44.294 0h-42.684v-56.918h42.684v56.918zm-44.295 0H90.2v-56.918h42.683v56.918zm-44.294 0H45.905v-56.918h42.684v56.918zm265.767-58.951h-42.684v-56.918h42.684v56.918zm-44.295 0h-42.683v-56.918h42.683v56.918zm-44.294 0h-42.684v-56.918h42.684v56.918zm-44.295 0h-42.683v-56.918h42.683v56.918zm-44.294 0h-42.684v-56.918h42.684v56.918zm-44.295 0H90.2v-56.918h42.683v56.918zm-44.294 0H45.905v-56.918h42.684v56.918zm-44.295 0H1.611v-56.918h42.683v56.918zm132.884-58.951h-42.684v-56.918h42.684v56.918zm-132.884 0H1.611v-56.918h42.683v56.918zm44.295 0H45.905v-56.918h42.684v56.918zm44.294 0H90.2v-56.918h42.683v56.918zm88.589 0h-42.683v-56.918h42.683v56.918zm44.295 0h-42.684v-56.918h42.684v56.918zm44.294 0h-42.683v-56.918h42.683v56.918zm44.295 0h-42.684v-56.918h42.684v56.918zM44.294 176.714H1.611v-56.918h42.683v56.918zm44.295 0H45.905v-56.918h42.684v56.918zm44.294 0H90.2v-56.918h42.683v56.918zm44.295 0h-42.684v-56.918h42.684v56.918zm44.294 0h-42.683v-56.918h42.683v56.918zm44.295 0h-42.684v-56.918h42.684v56.918zm44.294 0h-42.683v-56.918h42.683v56.918zm44.295 0h-42.684v-56.918h42.684v56.918zM44.294 117.763H1.611V60.845h42.683v56.918zm44.295 0H45.905V60.845h42.684v56.918zm44.294 0H90.2V60.845h42.683v56.918zm44.295 0h-42.684V60.845h42.684v56.918zm44.294 0h-42.683V60.845h42.683v56.918zm44.295 0h-42.684V60.845h42.684v56.918zm44.294 0h-42.683V60.845h42.683v56.918zm44.295 0h-42.684V60.845h42.684v56.918zM44.294 58.813H1.611V1.895h42.683v56.918zm44.295 0H45.905V1.895h42.684v56.918zm44.294 0H90.2V1.895h42.683v56.918zm44.295 0h-42.684V1.895h42.684v56.918zm44.294 0h-42.683V1.895h42.683v56.918zm44.295 0h-42.684V1.895h42.684v56.918zm44.294 0h-42.683V1.895h42.683v56.918zm44.295 0h-42.684V1.895h42.684v56.918z" fill="#ffc720"/>
  </g>
</svg>
