<svg viewBox="0 0 368 716" xmlns="http://www.w3.org/2000/svg" fill-rule="evenodd" clip-rule="evenodd" stroke-linejoin="round" stroke-miterlimit="1.414">
  <g id="luxe">
    <path fill="#e9b10c" d="M354.328 0H367.6v715.529h-13.272z"/>
    <path fill="#ffd500" d="M0 0h355.938v715.529H0z"/>
    <path d="M44.291 707.272H1.611v-56.918h42.68v56.918zm265.746 0h-42.681v-56.918h42.681v56.918zm-44.291 0h-42.681v-56.918h42.681v56.918zm-44.291 0h-42.681v-56.918h42.681v56.918zm-44.291 0h-42.681v-56.918h42.681v56.918zm-44.291 0H90.192v-56.918h42.681v56.918zm-44.291 0h-42.68v-56.918h42.68v56.918zm265.746 0h-42.681v-56.918h42.681v56.918zm0-58.951h-42.681v-56.918h42.681v56.918zm-44.291 0h-42.681v-56.918h42.681v56.918zm-44.291 0h-42.681v-56.918h42.681v56.918zm-44.291 0h-42.681v-56.918h42.681v56.918zm-44.291 0h-42.681v-56.918h42.681v56.918zm-44.291 0H90.192v-56.918h42.681v56.918zm-44.291 0h-42.68v-56.918h42.68v56.918zm-44.291 0H1.611v-56.918h42.68v56.918zm132.873-58.951h-42.681v-56.918h42.681v56.918zm-132.873 0H1.611v-56.918h42.68v56.918zm44.291 0h-42.68v-56.918h42.68v56.918zm44.291 0H90.192v-56.918h42.681v56.918zm88.582 0h-42.681v-56.918h42.681v56.918zm44.291 0h-42.681v-56.918h42.681v56.918zm44.291 0h-42.681v-56.918h42.681v56.918zm44.291 0h-42.681v-56.918h42.681v56.918zM44.291 530.419H1.611v-56.918h42.68v56.918zm44.291 0h-42.68v-56.918h42.68v56.918zm44.291 0H90.192v-56.918h42.681v56.918zm44.291 0h-42.681v-56.918h42.681v56.918zm44.291 0h-42.681v-56.918h42.681v56.918zm44.291 0h-42.681v-56.918h42.681v56.918zm44.291 0h-42.681v-56.918h42.681v56.918zm44.291 0h-42.681v-56.918h42.681v56.918zM88.582 471.468h-42.68V414.55h42.68v56.918zm44.291 0H90.192V414.55h42.681v56.918zm44.291 0h-42.681V414.55h42.681v56.918zm44.291 0h-42.681V414.55h42.681v56.918zm44.291 0h-42.681V414.55h42.681v56.918zm44.291 0h-42.681V414.55h42.681v56.918zm44.291 0h-42.681V414.55h42.681v56.918zm-310.037 0H1.611V414.55h42.68v56.918zm44.291-58.951h-42.68v-56.918h42.68v56.918zm44.291 0H90.192v-56.918h42.681v56.918zm44.291 0h-42.681v-56.918h42.681v56.918zm44.291 0h-42.681v-56.918h42.681v56.918zm44.291 0h-42.681v-56.918h42.681v56.918zm44.291 0h-42.681v-56.918h42.681v56.918zm44.291 0h-42.681v-56.918h42.681v56.918zm-310.037 0H1.611v-56.918h42.68v56.918zm0-58.95H1.611v-56.918h42.68v56.918zm310.037 0h-42.681v-56.918h42.681v56.918zm-44.291 0h-42.681v-56.918h42.681v56.918zm-44.291 0h-42.681v-56.918h42.681v56.918zm-44.291 0h-42.681v-56.918h42.681v56.918zm-44.291 0h-42.681v-56.918h42.681v56.918zm-44.291 0H90.192v-56.918h42.681v56.918zm-44.291 0h-42.68v-56.918h42.68v56.918zm265.746-58.951h-42.681v-56.918h42.681v56.918zm-44.291 0h-42.681v-56.918h42.681v56.918zm-44.291 0h-42.681v-56.918h42.681v56.918zm-44.291 0h-42.681v-56.918h42.681v56.918zm-44.291 0h-42.681v-56.918h42.681v56.918zm-44.291 0H90.192v-56.918h42.681v56.918zm-44.291 0h-42.68v-56.918h42.68v56.918zm-44.291 0H1.611v-56.918h42.68v56.918zm132.873-58.951h-42.681v-56.918h42.681v56.918zm-132.873 0H1.611v-56.918h42.68v56.918zm44.291 0h-42.68v-56.918h42.68v56.918zm44.291 0H90.192v-56.918h42.681v56.918zm88.582 0h-42.681v-56.918h42.681v56.918zm44.291 0h-42.681v-56.918h42.681v56.918zm44.291 0h-42.681v-56.918h42.681v56.918zm44.291 0h-42.681v-56.918h42.681v56.918zM44.291 176.714H1.611v-56.918h42.68v56.918zm44.291 0h-42.68v-56.918h42.68v56.918zm44.291 0H90.192v-56.918h42.681v56.918zm44.291 0h-42.681v-56.918h42.681v56.918zm44.291 0h-42.681v-56.918h42.681v56.918zm44.291 0h-42.681v-56.918h42.681v56.918zm44.291 0h-42.681v-56.918h42.681v56.918zm44.291 0h-42.681v-56.918h42.681v56.918zM44.291 117.763H1.611V60.845h42.68v56.918zm44.291 0h-42.68V60.845h42.68v56.918zm44.291 0H90.192V60.845h42.681v56.918zm44.291 0h-42.681V60.845h42.681v56.918zm44.291 0h-42.681V60.845h42.681v56.918zm44.291 0h-42.681V60.845h42.681v56.918zm44.291 0h-42.681V60.845h42.681v56.918zm44.291 0h-42.681V60.845h42.681v56.918zM44.291 58.813H1.611V1.895h42.68v56.918zm44.291 0h-42.68V1.895h42.68v56.918zm44.291 0H90.192V1.895h42.681v56.918zm44.291 0h-42.681V1.895h42.681v56.918zm44.291 0h-42.681V1.895h42.681v56.918zm44.291 0h-42.681V1.895h42.681v56.918zm44.291 0h-42.681V1.895h42.681v56.918zm44.291 0h-42.681V1.895h42.681v56.918z" fill="#ffc720"/>
  </g>
</svg>
