<svg viewBox="0 0 2363 443" xmlns="http://www.w3.org/2000/svg" fill-rule="evenodd" clip-rule="evenodd" stroke-linejoin="round" stroke-miterlimit="1.414">
  <path d="M20.022 443C7.16 425.148 0 405.344 0 384.5c0-55.539 50.835-103.7 124.925-127.206L204.581 48l57.567 92.938C286.28 122.177 316.595 111 349.5 111c29.769 0 57.418 9.148 80.287 24.784C463.478 115.108 504.29 103 548.25 103c20.994 0 41.269 2.761 60.394 7.899L647 78l32.72 28.065c2.252-.043 4.513-.065 6.78-.065 72.132 0 136.844 21.908 180.681 56.52L980 0l102.742 148.003C1139.054 114.162 1219.167 93 1308 93c49.341 0 95.991 6.528 137.368 18.132L1487.5 57l73.321 94.204c20.695-3.398 42.364-5.204 64.679-5.204 46.007 0 89.271 7.675 126.908 21.156C1782.06 127.608 1829.313 102 1882.5 102c61.342 0 114.791 34.063 142.448 84.289C2060.705 168.238 2110.923 157 2166.5 157c108.451 0 196.5 42.792 196.5 95.5 0 30.651-29.776 57.949-76.025 75.428C2303.009 347.911 2312 370.327 2312 394c0 17.141-4.714 33.623-13.403 49H20.017z" fill="#00bee5"/>
</svg>
