<?xml version="1.0" encoding="UTF-8" standalone="no"?><!DOCTYPE svg PUBLIC "-//W3C//DTD SVG 1.1//EN" "http://www.w3.org/Graphics/SVG/1.1/DTD/svg11.dtd"><svg width="100%" height="100%" viewBox="0 0 41 44" version="1.1" xmlns="http://www.w3.org/2000/svg" xmlns:xlink="http://www.w3.org/1999/xlink" xml:space="preserve" xmlns:serif="http://www.serif.com/" style="fill-rule:evenodd;clip-rule:evenodd;stroke-linejoin:round;stroke-miterlimit:1.41421;"><g><path d="M35.348,4.229c6.838,6.115 7.425,16.632 1.31,23.47c-6.115,6.839 -16.632,7.426 -23.471,1.311c-6.838,-6.115 -7.426,-16.632 -1.31,-23.471c6.115,-6.839 16.632,-7.426 23.471,-1.31Zm-2.533,2.832c5.276,4.717 5.729,12.83 1.011,18.106c-4.718,5.275 -12.831,5.728 -18.106,1.011c-5.276,-4.718 -5.729,-12.831 -1.011,-18.106c4.717,-5.276 12.83,-5.729 18.106,-1.011Z" style="fill:#0a6882;"/><path d="M15.767,30.043l-3.894,-3.482l-11.873,13.277l3.894,3.483l11.873,-13.278Z" style="fill:#0a6882;"/></g></svg>