<?xml version="1.0" encoding="UTF-8" standalone="no"?><!DOCTYPE svg PUBLIC "-//W3C//DTD SVG 1.1//EN" "http://www.w3.org/Graphics/SVG/1.1/DTD/svg11.dtd"><svg width="100%" height="100%" viewBox="0 0 47 51" version="1.1" xmlns="http://www.w3.org/2000/svg" xmlns:xlink="http://www.w3.org/1999/xlink" xml:space="preserve" xmlns:serif="http://www.serif.com/" style="fill-rule:evenodd;clip-rule:evenodd;stroke-linejoin:round;stroke-miterlimit:1.41421;"><g><g><path d="M0,45.822l8.668,-9.593l0.898,0.812l-7.903,8.747l3.379,3.053l7.904,-8.747l0.898,0.812l-8.668,9.593l-5.176,-4.677Z" style="fill:#0a6882;"/><path d="M9.289,37.348l-5.15,-4.653l19.199,-7.499l-5.52,19.859l-5.15,-4.653l0.722,-0.8l3.76,3.397l4.398,-15.822l-15.297,5.975l3.76,3.397l-0.722,0.799Z" style="fill:#0a6882;"/></g><g><path d="M31.633,10.813l-8.867,9.813l5.176,4.677l8.867,-9.813l-5.176,-4.677Z" style="fill:#0a6882;"/><path d="M46.104,0l-5.52,19.859l-13.679,-12.36l19.199,-7.499Z" style="fill:#0a6882;"/></g></g></svg>