<?xml version="1.0" encoding="UTF-8" standalone="no"?><!DOCTYPE svg PUBLIC "-//W3C//DTD SVG 1.1//EN" "http://www.w3.org/Graphics/SVG/1.1/DTD/svg11.dtd"><svg width="100%" height="100%" viewBox="0 0 55 56" version="1.1" xmlns="http://www.w3.org/2000/svg" xmlns:xlink="http://www.w3.org/1999/xlink" xml:space="preserve" xmlns:serif="http://www.serif.com/" style="fill-rule:evenodd;clip-rule:evenodd;stroke-linejoin:round;stroke-miterlimit:1.41421;"><path d="M22.687,54.623l-22.101,-20.14c-0.754,-0.687 -0.784,-1.882 -0.069,-2.668l28.408,-31.173c0.708,-0.777 1.883,-0.864 2.662,-0.179l22.101,20.141c0.754,0.712 0.777,1.89 0.069,2.667l-28.408,31.173c-0.715,0.786 -1.908,0.866 -2.662,0.179Zm-10.367,-9.98l5.432,-5.96l-0.837,-0.763l-5.432,5.961l0.837,0.762Zm40.662,-23.884l-0.837,-0.763l-30.339,33.292l0.837,0.763l30.339,-33.292Zm-20.647,-18.815l-0.837,-0.763l-30.338,33.292l0.837,0.763l30.338,-33.292Zm-13.788,35.866l5.432,-5.96l-0.838,-0.763l-5.431,5.961l0.837,0.762Zm6.226,-6.832l5.432,-5.961l-0.837,-0.763l-5.432,5.961l0.837,0.763Zm6.227,-6.833l5.432,-5.961l-0.837,-0.763l-5.432,5.961l0.837,0.763Zm6.227,-6.833l5.432,-5.961l-0.837,-0.763l-5.432,5.961l0.837,0.763Z" style="fill:#0a6882;"/></svg>